<svg width="750" height="500" viewBox="0 0 750 500" fill="none" xmlns="http://www.w3.org/2000/svg">
<g clip-path="url(#clip0_28_98)">
<path d="M85.0326 150.927C86.5162 144.643 82.6254 138.347 76.3422 136.864C70.059 135.38 63.7628 139.271 62.2791 145.554C60.7955 151.837 64.6863 158.133 70.9695 159.617C77.2527 161.101 83.5489 157.21 85.0326 150.927Z" fill="#EBEBEB"/>
<path d="M80.1496 149.421L80.1377 150.421L330.803 153.404L330.815 152.404L80.1496 149.421Z" fill="#EBEBEB"/>
<path d="M601.62 272.45L373.93 153.34L374.48 152.5L602.17 271.61L601.62 272.45Z" fill="#EBEBEB"/>
<path d="M289.873 57.8126L289.037 58.3623L340.264 136.213L341.099 135.664L289.873 57.8126Z" fill="#EBEBEB"/>
<path d="M321.794 178.524L254.133 238.336L254.796 239.085L322.456 179.273L321.794 178.524Z" fill="#EBEBEB"/>
<path d="M685.57 149.42H410.09V150.42H685.57V149.42Z" fill="#EBEBEB"/>
<path d="M309.956 57.7747C313.476 43.0513 304.393 28.2625 289.67 24.7429C274.946 21.2233 260.158 30.3057 256.638 45.029C253.118 59.7524 262.201 74.5412 276.924 78.0608C291.647 81.5804 306.436 72.498 309.956 57.7747Z" fill="#EBEBEB"/>
<path d="M290.821 64.09C290.181 65.71 290.961 67.54 292.591 68.19C293.501 68.55 294.491 68.45 295.271 68.02C295.681 67.79 296.161 67.75 296.591 67.92C297.371 68.23 297.761 69.1 297.451 69.88L294.541 77.22L274.411 69.23L277.321 61.89C277.631 61.11 278.501 60.74 279.281 61.05C279.721 61.22 280.031 61.58 280.171 62.03C280.451 62.89 281.111 63.64 282.021 64C283.631 64.64 285.471 63.86 286.121 62.23C286.761 60.62 285.961 58.77 284.351 58.13C283.441 57.77 282.451 57.87 281.651 58.31C281.241 58.53 280.761 58.58 280.331 58.41C279.551 58.1 279.181 57.22 279.491 56.45L282.411 49.09L289.751 52C290.531 52.31 291.401 51.93 291.711 51.16C291.881 50.72 291.841 50.25 291.611 49.84C291.181 49.04 291.071 48.07 291.441 47.14C292.081 45.53 293.911 44.73 295.541 45.37C297.151 46.01 297.951 47.85 297.311 49.47C296.941 50.39 296.201 51.03 295.331 51.31C294.891 51.46 294.521 51.77 294.351 52.2C294.041 52.98 294.431 53.85 295.191 54.16L302.551 57.08L299.631 64.44C299.331 65.21 298.441 65.59 297.661 65.28C297.221 65.11 296.911 64.74 296.771 64.3C296.501 63.43 295.851 62.68 294.941 62.32C293.301 61.68 291.461 62.48 290.821 64.09Z" fill="white"/>
<path d="M287.991 25.58L290.881 43.92L284.191 44.97C283.481 45.08 282.831 44.61 282.711 43.9C282.651 43.5 282.771 43.11 283.041 42.81C283.551 42.22 283.821 41.42 283.691 40.59C283.461 39.12 282.081 38.11 280.601 38.34C279.131 38.57 278.131 39.96 278.361 41.43C278.491 42.26 278.981 42.95 279.661 43.35C280.001 43.56 280.251 43.89 280.311 44.28C280.421 44.99 279.931 45.65 279.241 45.76L272.541 46.82L271.491 40.13C271.381 39.42 270.721 38.94 270.011 39.06C269.611 39.12 269.281 39.36 269.081 39.71C268.691 40.38 268.011 40.88 267.181 41.01C265.701 41.24 264.321 40.24 264.091 38.76C263.861 37.29 264.861 35.9 266.341 35.67C267.171 35.54 267.981 35.81 268.551 36.33C268.851 36.59 269.241 36.73 269.641 36.66C270.351 36.55 270.821 35.88 270.711 35.18L269.651 28.48L276.351 27.42C277.051 27.31 277.721 27.8 277.831 28.51C277.891 28.91 277.761 29.3 277.501 29.6C276.971 30.18 276.721 30.98 276.851 31.81C277.081 33.29 278.461 34.29 279.931 34.06C281.411 33.83 282.411 32.45 282.181 30.97C282.051 30.14 281.551 29.45 280.881 29.07C280.531 28.87 280.291 28.53 280.231 28.14C280.121 27.43 280.591 26.76 281.301 26.65L287.991 25.58Z" fill="white"/>
<path d="M638.976 296.568C650.877 280.987 647.894 258.708 632.313 246.807C616.732 234.906 594.453 237.89 582.552 253.471C570.651 269.051 573.635 291.33 589.216 303.231C604.797 315.132 627.075 312.148 638.976 296.568Z" fill="#EBEBEB"/>
<path d="M696.621 155.361C699.637 143.459 692.434 131.365 680.533 128.349C668.631 125.332 656.538 132.535 653.521 144.437C650.504 156.338 657.707 168.432 669.609 171.448C681.51 174.465 693.604 167.262 696.621 155.361Z" fill="#EBEBEB"/>
<path d="M667.11 143.13C667.11 147.51 670.66 151.05 675.03 151.05C679.41 151.05 682.95 147.5 682.95 143.13C682.95 138.75 679.4 135.21 675.03 135.21C670.66 135.2 667.11 138.75 667.11 143.13Z" fill="white"/>
<path d="M661.34 164.98V168.25C663.6 169.66 666.12 170.73 668.85 171.39C675.91 173.12 683 171.79 688.72 168.24V164.98C688.72 157.44 682.59 151.29 675.03 151.29C667.47 151.29 661.34 157.44 661.34 164.98Z" fill="white"/>
<path d="M262.4 252.601C264.713 240.544 256.813 228.894 244.756 226.581C232.698 224.268 221.049 232.167 218.735 244.225C216.422 256.282 224.322 267.932 236.379 270.245C248.437 272.558 260.087 264.659 262.4 252.601Z" fill="#EBEBEB"/>
<path d="M252.3 248.69C248.8 255.35 243.83 254.91 242.37 256.48C241.58 257.33 240.07 259.69 240.07 259.69L232.79 256.89C232.79 256.89 233.25 254.13 233.23 252.97C233.2 250.82 229.21 247.82 231.08 240.54C232.31 235.75 238.53 229.85 246.23 232.81C253.93 235.76 254.59 244.31 252.3 248.69Z" fill="white"/>
<path d="M236.271 245.556L233.978 257.966L234.961 258.148L237.254 245.737L236.271 245.556Z" fill="#DBDBDB"/>
<path d="M244.226 248.449L237.617 259.2L238.469 259.724L245.078 248.973L244.226 248.449Z" fill="#DBDBDB"/>
<path d="M239.661 251.25C239.491 251.25 239.321 251.22 239.171 251.16C238.471 250.89 238.101 250.1 237.951 249.2C237.711 249.29 237.481 249.3 237.261 249.22C236.071 248.76 236.471 246.38 236.521 246.11L237.011 246.2C236.901 246.78 236.761 248.49 237.441 248.75C237.551 248.79 237.711 248.76 237.891 248.68C237.831 247.86 237.941 247.01 238.161 246.45C238.561 245.4 239.201 245.55 239.391 245.62C239.951 245.84 240.111 246.41 239.831 247.16C239.591 247.79 239.031 248.53 238.431 248.95C238.541 249.77 238.841 250.49 239.361 250.69C239.901 250.9 240.541 250.47 240.881 250.2C240.901 250.18 240.921 250.16 240.951 250.15C240.721 249.45 240.831 248.57 241.081 247.93C241.421 247.05 242.011 246.62 242.571 246.84C242.811 246.93 242.971 247.14 243.021 247.42C243.141 248.18 242.401 249.45 241.561 250.28C241.671 250.47 241.831 250.62 242.041 250.7C242.531 250.89 243.561 249.87 244.141 249.09L244.541 249.39C244.271 249.75 242.871 251.55 241.861 251.17C241.561 251.05 241.341 250.87 241.181 250.63C240.621 251.04 240.121 251.25 239.661 251.25ZM242.251 247.29C241.961 247.29 241.681 247.68 241.521 248.12C241.341 248.6 241.251 249.23 241.351 249.76C242.101 248.96 242.571 247.97 242.501 247.5C242.481 247.37 242.421 247.33 242.371 247.31C242.331 247.3 242.291 247.29 242.251 247.29ZM239.101 246.07C238.881 246.07 238.721 246.36 238.621 246.63C238.441 247.09 238.361 247.72 238.371 248.34C238.771 247.99 239.161 247.47 239.351 246.98C239.541 246.5 239.491 246.2 239.201 246.09C239.171 246.08 239.131 246.07 239.101 246.07Z" fill="#DBDBDB"/>
<path d="M241.048 259.715L232.059 256.258L231.384 258.013L240.373 261.47L241.048 259.715Z" fill="white"/>
<path d="M240.261 261.752L231.272 258.295L230.598 260.05L239.586 263.507L240.261 261.752Z" fill="white"/>
<path d="M239.476 263.796L230.487 260.338L229.812 262.093L238.801 265.55L239.476 263.796Z" fill="white"/>
<path d="M624.74 256.21C624 258.78 622 260.66 619.61 261.34L611.95 259.14C610.28 257.29 609.58 254.64 610.32 252.07C611.46 248.08 615.62 245.79 619.6 246.93C623.58 248.08 625.89 252.22 624.74 256.21Z" fill="white"/>
<path opacity="0.3" d="M618.24 252.82C617.18 254.1 615.28 254.29 614 253.23C612.72 252.17 612.53 250.27 613.59 248.99C614.65 247.71 616.55 247.52 617.83 248.58C619.11 249.64 619.3 251.53 618.24 252.82Z" fill="white"/>
<path d="M608.123 258.041L607.492 260.242L622.777 264.623L623.408 262.421L608.123 258.041Z" fill="white"/>
<path d="M622.587 295.006L591.623 286.132L590.992 288.333L621.956 297.207L622.587 295.006Z" fill="white"/>
<path d="M620.815 301.187L589.852 292.313L589.221 294.515L620.184 303.389L620.815 301.187Z" fill="white"/>
<path d="M620.807 296.882L592.15 288.669L591.01 292.649L619.666 300.861L620.807 296.882Z" fill="white"/>
<path opacity="0.1" d="M620.807 296.884L604.628 292.247L603.488 296.227L619.667 300.864L620.807 296.884Z" fill="black"/>
<path d="M608.945 260.657L608.314 262.858L620.782 266.433L621.413 264.232L608.945 260.657Z" fill="white"/>
<path d="M619.75 294.22L594.42 286.96C594.42 286.96 601.85 282.84 605.04 276.27C607.72 270.72 610.33 263.46 610.33 263.46L618.69 265.86C618.69 265.86 617.06 273.4 616.41 279.53C615.63 286.79 619.75 294.22 619.75 294.22Z" fill="white"/>
<path opacity="0.1" d="M619.75 294.22L607.57 290.73C607.57 290.73 610.81 286.76 612.34 282.35C613.86 277.92 616.24 267.53 616.24 267.53L610.35 263.47L618.71 265.87V265.89C618.61 266.34 617.06 273.6 616.42 279.54C615.63 286.79 619.75 294.22 619.75 294.22Z" fill="black"/>
<path d="M70.5503 155.18C70.3003 156.52 69.0103 157.41 67.6603 157.16C66.3203 156.91 65.4303 155.62 65.6803 154.27C65.9303 152.93 67.2203 152.04 68.5703 152.29C69.9203 152.55 70.8003 153.84 70.5503 155.18Z" fill="white"/>
<path d="M72.8411 142.929L70.9834 142.581L68.6963 154.799L70.554 155.146L72.8411 142.929Z" fill="white"/>
<path d="M79.08 153.12C78.83 154.46 77.54 155.35 76.19 155.1C74.85 154.85 73.96 153.56 74.21 152.21C74.46 150.87 75.75 149.98 77.1 150.23C78.45 150.48 79.33 151.78 79.08 153.12Z" fill="white"/>
<path d="M81.3606 140.867L79.5029 140.52L77.2158 152.737L79.0735 153.085L81.3606 140.867Z" fill="white"/>
<path d="M81.3702 140.9L70.6802 144.22L70.9902 142.59L81.6702 139.26L81.3702 140.9Z" fill="white"/>
<path d="M80.7901 143.97L70.1001 147.3L70.4101 145.66L81.1001 142.34L80.7901 143.97Z" fill="white"/>
<path d="M375.5 234.286C407.465 231.025 430.734 202.468 427.473 170.503C424.211 138.539 395.655 115.27 363.69 118.531C331.725 121.793 308.456 150.349 311.718 182.314C314.979 214.279 343.536 237.548 375.5 234.286Z" fill="#EBEBEB"/>
<path d="M578.611 174.485L585.524 167.969L552.478 132.908L545.565 139.424L578.611 174.485Z" fill="#DBDBDB"/>
<path d="M598.73 199.37L609.18 189.52L582.64 161.36L572.19 171.21L598.73 199.37Z" fill="#C7C7C7"/>
<g opacity="0.3">
<path d="M511.83 146.93C488.44 142.87 472.71 120.53 476.77 97.15C478.74 85.84 485 75.96 494.42 69.32C503.83 62.69 515.25 60.12 526.56 62.09C537.87 64.05 547.75 70.32 554.39 79.74C561.02 89.15 563.58 100.57 561.62 111.88C559.65 123.19 553.39 133.07 543.97 139.7C534.55 146.33 523.14 148.9 511.83 146.93Z" fill="white"/>
</g>
<g opacity="0.1">
<path d="M554.401 79.7201C568.071 99.1301 563.391 126.04 543.991 139.71C534.601 146.32 523.181 148.88 511.831 146.91C500.491 144.94 490.601 138.69 483.991 129.29C477.381 119.91 474.821 108.48 476.791 97.1301C478.761 85.7901 485.021 75.9001 494.411 69.2901C503.801 62.6801 515.221 60.1201 526.561 62.1001C537.901 64.0801 547.791 70.3301 554.401 79.7201Z" fill="white"/>
</g>
<path d="M510.591 154.1C483.251 149.35 464.871 123.25 469.611 95.9099C474.361 68.5699 500.461 50.1899 527.801 54.9299C555.141 59.6799 573.521 85.7799 568.781 113.12C564.041 140.46 537.931 158.84 510.591 154.1ZM511.581 148.41C535.791 152.61 558.901 136.34 563.101 112.13C567.301 87.9199 551.031 64.8099 526.821 60.6099C502.611 56.4099 479.501 72.6799 475.301 96.8899C471.101 121.1 487.371 144.21 511.581 148.41Z" fill="#C7C7C7"/>
<path d="M569.24 90.99C567.68 85.23 565.1 79.72 561.55 74.68C553.58 63.36 541.68 55.82 528.07 53.44C499.91 48.56 473.03 67.49 468.14 95.63C465.78 109.26 468.87 122.99 476.85 134.32C484.83 145.65 496.72 153.19 510.33 155.56C523.95 157.92 537.69 154.83 549.02 146.85C560.35 138.88 567.89 126.98 570.26 113.37C571.57 105.8 571.2 98.21 569.24 90.99ZM494.42 69.32C503.83 62.69 515.26 60.13 526.57 62.08C537.88 64.05 547.76 70.31 554.39 79.72C561.02 89.14 563.59 100.56 561.63 111.87C557.57 135.26 535.23 150.98 511.85 146.93C500.53 144.96 490.65 138.7 484.02 129.28C477.39 119.87 474.82 108.45 476.78 97.14C478.73 85.84 485.01 75.96 494.42 69.32Z" fill="#EBEBEB"/>
<path d="M489.041 123.43C486.481 119.67 484.891 115.25 484.061 110.68C483.631 108.39 483.49 106.04 483.52 103.68C483.58 101.32 483.901 98.9599 484.411 96.6299C485.521 91.9899 487.61 87.5699 490.49 83.7899C493.37 80.0099 496.921 76.8099 500.881 74.3899C497.671 77.7599 494.751 81.2599 492.381 85.0599C491.251 86.9899 490.13 88.9099 489.33 90.9699C488.48 92.9999 487.741 95.0799 487.281 97.2299C486.261 101.49 486 105.92 486.33 110.32C486.71 114.73 487.591 119.13 489.041 123.43Z" fill="#EBEBEB"/>
<path d="M552.391 96.46C553.831 100.77 554.151 105.46 553.701 110.08C553.491 112.4 552.981 114.7 552.301 116.96C551.601 119.21 550.641 121.4 549.521 123.5C547.191 127.66 543.971 131.34 540.161 134.19C536.361 137.04 532.071 139.15 527.601 140.39C531.601 138.02 535.371 135.45 538.691 132.45C540.301 130.9 541.911 129.36 543.241 127.6C544.621 125.88 545.891 124.08 546.921 122.14C549.071 118.32 550.531 114.13 551.411 109.8C552.251 105.46 552.611 100.99 552.391 96.46Z" fill="#EBEBEB"/>
<path d="M376.95 142.47L376.94 120.44C376.94 120.79 376.99 121.15 377.12 121.55C377.25 121.93 377.45 122.3 377.71 122.65C379.64 125.25 385.15 127.02 394.13 127.92L394.14 149.95C385.15 149.05 379.65 147.28 377.72 144.68C377.46 144.33 377.26 143.96 377.13 143.58C377 143.18 376.95 142.82 376.95 142.47Z" fill="#083E78"/>
<g opacity="0.1">
<path d="M376.95 142.47L376.94 120.44C376.94 120.79 376.99 121.15 377.12 121.55C377.25 121.93 377.45 122.3 377.71 122.65C379.64 125.25 385.15 127.02 394.13 127.92L394.14 149.95C385.15 149.05 379.65 147.28 377.72 144.68C377.46 144.33 377.26 143.96 377.13 143.58C377 143.18 376.95 142.82 376.95 142.47Z" fill="black"/>
</g>
<path d="M377.41 139.34C377.41 139.9 377.29 140.42 377.18 140.93C377.06 141.44 376.95 141.94 376.95 142.47L376.94 120.44C376.94 119.91 377.05 119.42 377.17 118.9C377.28 118.39 377.4 117.86 377.4 117.31C377.41 123.92 377.41 132.73 377.41 139.34Z" fill="#083E78"/>
<g opacity="0.4">
<path d="M377.41 139.34C377.41 139.9 377.29 140.42 377.18 140.93C377.06 141.44 376.95 141.94 376.95 142.47L376.94 120.44C376.94 119.91 377.05 119.42 377.17 118.9C377.28 118.39 377.4 117.86 377.4 117.31C377.41 123.92 377.41 132.73 377.41 139.34Z" fill="black"/>
</g>
<path d="M377.4 117.32L377.41 139.35C377.41 138.95 377.35 138.53 377.19 138.09C377.05 137.71 376.86 137.36 376.6 137.01C374.6 134.31 369 132.67 359.57 132.01L359.56 109.98C368.99 110.64 374.59 112.28 376.59 114.98C376.84 115.32 377.04 115.68 377.18 116.06C377.34 116.5 377.4 116.92 377.4 117.32Z" fill="#083E78"/>
<path d="M360.3 107.04H358.04V229.31H360.3V107.04Z" fill="#263238"/>
<path d="M362.49 104.49C362.49 106.32 361.01 107.8 359.18 107.8C357.35 107.8 355.87 106.32 355.87 104.49C355.87 102.66 357.35 101.18 359.18 101.18C361.01 101.18 362.49 102.66 362.49 104.49Z" fill="#263238"/>
<path d="M671.37 323.92C669.87 328.83 669.55 334.12 670.31 339.19C671.91 349.89 679.96 358.37 681.71 368.91C681.49 370.18 681.23 371.45 680.89 372.73C680.89 372.75 680.88 372.78 680.87 372.8C680.87 372.81 680.86 372.82 680.87 372.83C680.87 372.84 680.87 372.84 680.87 372.84C680.87 372.85 680.87 372.85 680.87 372.86C680.88 372.92 680.92 372.96 680.97 372.98C681.04 372.84 681.11 372.69 681.17 372.55C681.3 372.28 681.42 372.02 681.52 371.75C681.69 371.37 681.83 371 681.97 370.61C682.01 370.63 682.06 370.44 682.06 370.39C685.99 359.56 682.38 347.56 680.55 336.57C679.5 330.29 679.94 323.95 679 317.7C678.77 316.21 678.79 313.37 676.64 313.95C674.22 314.58 671.98 321.91 671.37 323.92Z" fill="#455A64"/>
<path d="M672.95 333.15C672.27 346.17 684.28 357.56 681.49 370.57C681.4 370.94 681.31 371.3 681.21 371.66C681.14 371.91 681.07 372.16 680.99 372.41C680.99 372.41 680.99 372.41 680.99 372.42C680.96 372.52 680.92 372.62 680.88 372.73C680.88 372.75 680.87 372.78 680.86 372.8C680.86 372.81 680.85 372.82 680.86 372.83C680.86 372.84 680.86 372.84 680.86 372.84C680.86 372.85 680.86 372.85 680.86 372.86C680.87 372.92 680.91 372.96 680.96 372.98C680.98 372.99 681 372.99 681.01 372.99C681.05 372.99 681.09 372.96 681.12 372.91C681.27 372.53 681.4 372.13 681.52 371.75C681.83 370.79 682.05 369.83 682.18 368.87C682.19 368.87 682.18 368.86 682.18 368.86C683.44 363.13 683.13 357.44 681.92 351.43C680.43 344.04 678.55 336.88 677.2 329.4C677.03 328.48 677.03 324.84 675.55 325.32C673.67 325.93 673.03 331.64 672.95 333.15ZM673.59 331.21C673.71 330.48 674.65 325.58 675.87 326.09C676.6 326.39 676.69 330.1 676.8 330.62C677.23 332.64 677.66 334.64 678.1 336.65C679.02 340.88 679.97 345.11 680.89 349.34C682.01 354.57 682.71 359.8 682.34 365C681.66 353.61 671.69 343.03 673.59 331.21Z" fill="white"/>
<path d="M668.25 448.93C668.26 449.1 668.39 449.34 668.63 449.19C678.49 442.84 690.8 448.01 701.01 442.34C705.11 440.06 708.66 436.86 711.98 433.58C714.43 431.16 716.88 428.59 718.66 425.63C718.9 425.23 720.15 423.62 719.95 422.82C718.38 416.74 702.58 427.03 699.94 428.48C689.61 434.12 680.15 439.26 671.1 446.48C670.15 447.22 669.21 448 668.28 448.8C668.24 448.83 668.24 448.88 668.25 448.93Z" fill="#455A64"/>
<path d="M668.25 448.93C668.61 448.7 668.97 448.47 669.33 448.26C676.11 445 683.66 443.86 690.95 442C698.3 440.12 704.59 437.05 710.06 431.71C711.02 430.77 715.03 427.15 713.85 425.34C712.79 423.7 708.76 426.86 707.77 427.41C700.43 431.52 693.25 435.69 685.6 439.23C680.71 441.49 675.75 443.75 671.1 446.49C670.15 447.23 669.21 448.01 668.28 448.81C668.24 448.83 668.24 448.88 668.25 448.93ZM672.85 446.18C678.25 443.16 683.91 440.65 689.53 437.98C693.39 436.16 697.16 434.18 700.86 432.04C702.88 430.86 704.89 429.66 706.93 428.51C707.95 427.93 708.97 427.36 710 426.81C710.51 426.53 712.21 425.55 712.64 426.33C713.8 428.45 702.47 439.2 688.42 441.98C683.14 443.03 677.81 444.2 672.85 446.18Z" fill="white"/>
<path d="M684.66 430.25C684.62 430.29 684.63 430.35 684.67 430.38C684.71 430.42 684.77 430.42 684.82 430.37C685.03 430.17 685.23 429.97 685.43 429.77C686.18 429.03 686.9 428.29 687.6 427.53C687.73 427.39 687.86 427.26 687.98 427.11C688.03 427.1 688.06 427.09 688.09 427.07C695.97 419.01 707.91 416.55 714.63 407.21C717.62 403.05 719.52 398.24 720.95 393.35C721.57 391.24 724.6 384.79 721.94 383.12C719.87 381.82 716.63 384.64 715.28 385.85C710.99 389.66 707.95 394.99 704.96 399.82C702.03 404.55 699.36 409.42 696.57 414.22C693.98 418.67 690.97 422.64 687.75 426.55C686.75 427.78 685.71 429.01 684.66 430.25Z" fill="#455A64"/>
<path d="M684.66 430.25C684.62 430.29 684.63 430.35 684.67 430.38C685.32 429.7 685.96 429.03 686.61 428.36C686.21 428.83 685.81 429.3 685.43 429.77C686.18 429.03 686.9 428.29 687.6 427.53C687.95 427.13 688.29 426.73 688.65 426.33C693.17 421.95 698.04 417.96 703.17 414.29C705.72 412.46 707.9 410.4 709.72 407.79C713.02 403.06 718.15 391.91 717.16 390.23C716.12 388.43 714.11 392.1 713.54 392.87C708.95 399.13 705.23 405.92 700.3 411.94C696.98 415.98 693.61 420 690.26 424.01C689.41 424.83 688.58 425.66 687.78 426.52C686.75 427.78 685.71 429.01 684.66 430.25ZM716.4 390.65C717.27 391.01 715.95 394 715.6 394.79C713.93 398.59 712.11 402.45 710.06 406.07C707.89 409.92 704.79 412.46 701.22 414.96C698.3 417.01 695.43 419.29 692.7 421.73C696.03 417.95 699.33 414.14 702.42 410.18C704.98 406.89 707.2 403.37 709.46 399.87C710.58 398.12 711.71 396.38 712.91 394.68C713.23 394.22 715.62 390.33 716.4 390.65Z" fill="white"/>
<path d="M625.921 479.98C625.911 480.03 625.951 480.07 626.001 480.07C626.041 480.08 626.091 480.05 626.111 479.99C626.161 479.74 626.211 479.49 626.261 479.24C626.441 478.32 626.591 477.41 626.731 476.5C626.751 476.33 626.781 476.17 626.801 476C626.831 475.97 626.851 475.95 626.861 475.91C628.601 466.01 636.141 458.17 636.381 447.91C636.491 443.34 635.461 438.84 634.041 434.52C633.431 432.65 632.411 426.38 629.611 426.49C627.431 426.58 626.471 430.29 626.081 431.85C624.841 436.82 625.291 442.27 625.531 447.34C625.761 452.3 626.251 457.23 626.621 462.17C626.961 466.75 626.741 471.19 626.351 475.69C626.221 477.1 626.071 478.53 625.921 479.98Z" fill="#455A64"/>
<path d="M625.92 479.98C625.91 480.03 625.951 480.07 626.001 480.07C626.131 479.25 626.27 478.42 626.41 477.61C626.35 478.16 626.301 478.71 626.251 479.25C626.431 478.33 626.58 477.42 626.72 476.51C626.77 476.04 626.821 475.57 626.891 475.1C628.001 469.6 629.581 464.2 631.511 458.92C632.471 456.29 633.03 453.67 633.05 450.84C633.09 445.69 631.25 434.91 629.67 434.17C628 433.38 628.371 437.08 628.341 437.94C628.121 444.86 628.811 451.74 628.211 458.65C627.811 463.3 627.35 467.95 626.91 472.6C626.7 473.63 626.51 474.66 626.35 475.7C626.22 477.1 626.07 478.53 625.92 479.98ZM627.561 469.65C628.111 465.19 628.621 460.72 628.891 456.25C629.111 452.54 628.97 448.83 628.87 445.11C628.81 443.25 628.77 441.4 628.79 439.55C628.79 439.05 628.591 434.98 629.331 434.82C630.151 434.65 630.691 437.52 630.831 438.27C631.521 441.91 632.121 445.66 632.441 449.36C632.781 453.29 631.78 456.72 630.42 460.36C629.3 463.35 628.331 466.47 627.561 469.65Z" fill="white"/>
<path d="M624.78 488.19C624.96 488.19 625.22 488.12 625.55 487.92C635.64 484.06 646.67 483.89 656.81 480.03C661.24 478.34 665.43 475.86 668.59 472.27C669.94 470.73 674.63 465.45 673.6 462.99C670.51 455.61 636.47 478.85 625.27 487.21C625.04 487.33 624.87 487.44 624.76 487.56C624.42 487.88 624.47 488.17 624.78 488.19Z" fill="#455A64"/>
<path d="M624.78 488.19C625.53 487.78 626.28 487.36 627.04 486.95C629.49 485.97 631.96 485.03 634.48 484.24C638.48 482.98 642.59 482.23 646.65 481.21C653 479.61 658.86 476.58 663.66 472.12C664.71 471.16 667.82 468.59 667.14 466.8C666.52 465.16 663.98 466.78 663.07 467.2C650.27 473.31 637.82 480.33 625.4 487.23C625.17 487.34 624.96 487.44 624.75 487.56C624.42 487.88 624.47 488.17 624.78 488.19ZM630.72 484.94C635.58 482.3 640.44 479.66 645.32 477.06C649.14 475.02 652.96 473 656.8 470.99C658.7 470 660.57 468.98 662.49 468.02C663.24 467.64 666.16 466.15 666.43 467.21C666.69 468.18 664.69 470.23 664.32 470.6C658.57 476.52 651.19 479.56 643.28 481.32C639.02 482.27 634.8 483.41 630.72 484.94Z" fill="white"/>
<path d="M673.12 402.94C673.04 403.08 673.03 403.21 673.07 403.33C673.13 403.5 673.31 403.62 673.51 403.64C673.61 403.66 673.71 403.64 673.8 403.61C673.86 403.62 673.92 403.6 673.97 403.55C678.73 398.89 686.01 394.55 690.91 390.08C694.67 386.64 697.76 382.55 700.36 378.16C703.24 373.32 705.71 368.06 707.33 362.66C708.1 360.08 710.32 353.98 708.22 351.44C703.91 346.21 695.21 365.22 693.96 367.35C686.98 379.19 679.99 391.03 673.12 402.94Z" fill="#455A64"/>
<path d="M673.07 403.33C673.13 403.5 673.31 403.62 673.51 403.64C673.79 403.24 674.07 402.83 674.35 402.43C676.21 400.24 678.08 398.05 680.07 395.96C683.3 392.56 687 389.61 690.12 386.11C695.55 380 705.75 360.54 702.82 358.6C701.29 357.59 699.4 361.6 698.85 362.54C696.66 366.29 694.95 370.29 692.71 374.01C690.37 377.92 687.79 381.69 685.24 385.47C681.29 391.27 677.31 397.06 673.42 402.91C673.29 403.06 673.19 403.19 673.07 403.33ZM676.98 398.62C680.5 393.49 683.97 388.33 687.45 383.18C689.85 379.62 692.23 376.02 694.37 372.29C695.56 370.2 696.63 368.05 697.71 365.9C698.24 364.86 698.76 363.8 699.36 362.79C699.87 361.92 701.78 358.28 702.63 359.61C703.46 360.89 700.91 366.64 700.31 367.98C699.31 370.15 698.3 372.29 697.2 374.41C695.03 378.57 692.53 382.59 689.38 386.09C686.23 389.57 682.55 392.52 679.37 395.98C678.56 396.84 677.76 397.72 676.98 398.62Z" fill="white"/>
<path d="M616 412.42C624.76 421.94 638.9 424.59 644.06 441.28C644.07 441.35 644.16 441.34 644.19 441.3C644.22 441.29 644.23 441.26 644.22 441.24C643.9 439.56 643.52 437.88 643.07 436.21C640.69 427.24 636.51 418.53 630.95 411.19C627.6 406.79 623.63 402.8 619.11 399.6C616.8 397.96 611.8 393.79 608.92 394.44C602.7 395.83 614.4 410.69 616 412.42Z" fill="#455A64"/>
<path d="M616.52 406.55C620.05 413.47 627.05 417.96 632.41 423.35C636.1 427.07 639.46 431.13 642.1 435.61C642.83 437.48 643.52 439.37 644.18 441.29C644.21 441.28 644.22 441.25 644.21 441.23C643.89 439.55 643.51 437.87 643.06 436.2C643 436.11 642.96 436.02 642.91 435.93C641.05 430.81 638.47 425.88 635.63 421.37C631.65 415.02 626.77 409.22 621.18 404.23C620.22 403.36 617.03 399.59 615.38 400.55C613.8 401.49 616.03 405.59 616.52 406.55ZM615.93 401.18C617.14 400.73 622.76 406.31 624.96 408.59C629.71 413.49 633.82 419.01 637.17 424.95C638.64 427.55 639.88 430.2 641.02 432.91C639.14 430.1 637 427.47 634.68 424.98C629.85 419.8 623.8 415.66 619.43 410.1C618.28 408.65 617.28 407.07 616.53 405.37C616.22 404.68 614.83 401.59 615.93 401.18Z" fill="white"/>
<path d="M626.87 360.45C626.3 365.09 626.24 369.82 626.77 374.47C627.8 383.56 630.99 392.07 635.93 399.73C636.02 399.86 636.1 400.01 636.2 400.14C636.28 400.58 636.36 401.03 636.47 401.46C636.49 401.56 636.51 401.66 636.53 401.76C636.54 401.79 636.54 401.8 636.55 401.82H636.56C636.62 401.89 636.76 401.86 636.76 401.73C636.76 401.19 636.77 400.63 636.78 400.08C636.96 388.8 639.04 377.76 637.53 366.46C637.19 363.99 635.58 347.85 629.95 350.61C627.33 351.91 627.15 358.1 626.87 360.45Z" fill="#455A64"/>
<path d="M629.12 362.72C628.73 369.67 630.55 377.13 631.98 383.91C633.09 389.17 634.28 394.55 635.93 399.73C636.06 400.15 636.2 400.58 636.34 401C636.38 401.15 636.42 401.31 636.47 401.47C636.49 401.59 636.52 401.71 636.56 401.83H636.57C636.63 401.9 636.77 401.87 636.77 401.74C636.77 401.2 636.78 400.64 636.79 400.09C636.68 399.67 636.56 399.26 636.45 398.85C635.63 392.71 635.71 386.56 635.76 380.32C635.79 376.96 635.74 373.62 635.44 370.27C635.15 367.05 635.01 363.59 634.01 360.5C633.57 359.15 632.66 356.49 630.77 357.48C629.16 358.31 629.21 361.25 629.12 362.72ZM633.26 360.37C634.45 364.02 634.63 368.31 634.89 372.14C635.15 375.8 635.11 379.47 635.07 383.14C635.03 387.02 634.99 390.97 635.35 394.86C634.02 389.97 632.73 385.07 631.78 380.05C631.03 376.12 630.38 372.18 629.92 368.21C629.68 366.16 629.53 364.11 629.72 362.04C629.78 361.31 629.86 360.57 630.02 359.87C630.5 357.61 632.73 358.72 633.26 360.37Z" fill="white"/>
<path d="M696.13 331.15C696.09 331.33 696.06 331.51 696.02 331.69C695.97 331.97 696.23 332.11 696.44 332.06C696.56 332.03 696.65 331.95 696.68 331.8C696.75 331.48 696.83 331.14 696.91 330.82V330.81C696.97 330.54 697.03 330.29 697.09 330.02C697.33 329.58 697.59 329.15 697.88 328.74C700.87 324.21 706.05 320.39 709.57 316.52C712.78 313.01 715.8 309.32 718.26 305.23C720.74 301.1 722.68 296.58 723.3 291.77C723.46 290.48 724.07 287.21 722.46 286.39C720.42 285.36 717.29 289.28 716.19 290.3C712.39 293.86 709.15 297.98 706.43 302.41C700.96 311.32 698.16 321.02 696.13 331.15Z" fill="#455A64"/>
<path d="M697.04 328.91C696.69 329.65 696.38 330.4 696.13 331.16C696.09 331.34 696.06 331.52 696.02 331.7C695.97 331.98 696.23 332.12 696.44 332.07C696.48 331.94 696.52 331.81 696.56 331.68C696.68 331.4 696.79 331.11 696.91 330.83V330.82C697.21 330.12 697.53 329.43 697.88 328.75C699.09 326.34 700.55 324.08 702.26 321.78C705.13 317.95 708.14 314.22 710.87 310.28C712.24 308.31 722.75 293.1 718.61 291.64C717.83 291.36 717.08 292.4 716.66 292.83C715.2 294.35 714.01 296.15 712.89 297.92C710.26 302.04 707.77 306.27 705.42 310.57C702.22 316.49 699.35 322.58 697.04 328.91ZM704.56 313.2C706.57 309.39 708.7 305.66 710.92 301.98C712 300.19 713.08 298.38 714.27 296.65C714.85 295.79 717.81 291.93 718.62 292.44C719.81 293.18 716.99 299.19 716.14 300.81C715.16 302.66 714.09 304.45 712.98 306.22C710.73 309.77 708.25 313.17 705.7 316.51C703.45 319.47 700.76 322.61 698.65 326.01C700.38 321.64 702.38 317.37 704.56 313.2Z" fill="white"/>
<path d="M660 384.07C660.06 384.25 660.12 384.41 660.18 384.59C660.27 384.86 660.57 384.85 660.73 384.7C660.82 384.61 660.85 384.5 660.81 384.36C660.71 384.04 660.61 383.72 660.52 383.4V383.39C660.44 383.13 660.36 382.88 660.28 382.61C660.27 382.11 660.28 381.61 660.32 381.11C660.63 375.69 663.2 369.78 664.3 364.68C665.31 360.03 666.08 355.32 666.15 350.56C666.22 345.74 665.64 340.86 663.75 336.39C663.24 335.19 662.13 332.06 660.32 332.16C658.03 332.29 657.3 337.25 656.86 338.69C655.36 343.67 654.63 348.87 654.5 354.06C654.23 364.5 656.67 374.29 660 384.07Z" fill="#455A64"/>
<path d="M659.671 381.67C659.741 382.48 659.851 383.29 660.011 384.07C660.071 384.25 660.131 384.41 660.191 384.59C660.281 384.86 660.581 384.85 660.741 384.7C660.711 384.57 660.681 384.44 660.651 384.3C660.611 384 660.561 383.69 660.521 383.39V383.38C660.431 382.62 660.361 381.87 660.321 381.1C660.161 378.41 660.281 375.72 660.611 372.87C661.171 368.11 661.911 363.38 662.291 358.6C662.481 356.21 663.941 337.78 659.641 338.59C658.831 338.74 658.701 340.02 658.561 340.6C658.061 342.65 657.941 344.8 657.851 346.9C657.641 351.79 657.611 356.69 657.741 361.58C657.911 368.33 658.491 375.05 659.671 381.67ZM658.291 364.32C658.121 360.02 658.091 355.72 658.161 351.43C658.201 349.34 658.231 347.23 658.381 345.14C658.451 344.1 659.071 339.28 660.031 339.32C661.431 339.37 662.011 345.98 662.081 347.81C662.161 349.9 662.141 351.99 662.061 354.07C661.901 358.27 661.461 362.46 660.931 366.62C660.471 370.31 659.721 374.37 659.601 378.37C658.911 373.71 658.491 369.02 658.291 364.32Z" fill="white"/>
<path d="M635.39 391.65C636.89 401.45 638.74 411.03 641.33 420.6C643.33 427.98 645.34 435.47 645.63 443.15C645.97 452.33 643.32 462.52 638.66 471.32C641.35 468.31 644.01 465.26 646.65 462.17C652.02 455.87 657.36 449.41 661.17 442.02C661.55 441.29 661.89 440.55 662.23 439.81C662.2 439.76 662.18 439.7 662.2 439.63C664.39 429.61 664.93 419.82 664.12 409.91C662.44 404.68 660.37 399.99 657.65 395.04C654.96 390.15 652.38 385.39 650.95 379.95C650.87 379.64 651.31 379.45 651.42 379.77C654.16 386.96 659.8 393.96 663.12 401.42C662.93 400.19 662.73 398.96 662.5 397.72C660.34 385.92 656.25 374.05 660.57 362.25C660.71 361.85 661.28 362.13 661.16 362.51C657.09 375.65 663.49 390.13 665.39 403.19C666.8 412.9 667.28 423.37 664.92 433.05C666.73 427.72 668.01 422.21 669.24 416.72C676.67 383.59 685.26 350.65 701.37 320.54C701.53 320.25 702 320.45 701.85 320.75C685.36 353.42 678.83 388.94 670.24 424.14C670.14 424.54 670.04 424.94 669.94 425.34C672.79 420.69 676.57 416.44 680.29 412.82C680.48 412.64 680.78 412.87 680.61 413.09C675.89 419.14 672.28 425.76 668.03 432.08C666.47 437 664.51 441.77 661.87 446.26C658.72 451.61 654.89 456.51 650.91 461.26C657.64 455.62 664.42 450.05 670.75 443.91C680.3 434.63 689.41 424.79 697.65 414.32C697.77 414.17 697.99 414.35 697.88 414.51C689.75 425.84 681.01 436.6 671.11 446.44C662.74 454.77 653.77 463.25 643.72 469.64C634.12 480.7 623.84 491.81 611.7 499.9C611.12 500.29 610.58 499.48 611.08 499.04C613.31 497.06 615.49 495.04 617.64 493.01C619.74 488.32 622.64 484.03 624.51 479.18C626.71 473.48 628.18 467.61 628.97 461.56C629.03 461.11 629.68 461.23 629.65 461.66C629.15 469.91 627.3 480.06 622.89 487.94C625.96 484.9 628.97 481.82 631.93 478.67C639.82 466.62 644.96 452.3 643.24 437.88C642.35 430.47 640.23 423.31 638.49 416.08C636.55 408.02 635.55 399.96 634.86 391.72C634.81 391.35 635.33 391.3 635.39 391.65Z" fill="#455A64"/>
<path d="M126.71 354.97C128.08 358.75 127.8 363.42 127.63 367.36C127.44 371.88 126.87 376.37 126.06 380.82C125.31 384.96 124.36 389.07 123.33 393.14C123.32 393.18 123.31 393.22 123.3 393.25C123.24 393.52 123.17 393.79 123.1 394.05C123.06 394.38 123.02 394.71 122.96 395.05C122.94 395.15 122.87 395.21 122.78 395.22C122.67 395.24 122.56 395.18 122.57 395.03C122.59 394.85 122.61 394.66 122.62 394.48C123.28 386.83 118.87 379.85 118.6 372.26C118.46 368.11 119.45 363.94 120.23 359.89C120.66 357.64 120.77 354.73 121.64 352.62C121.87 352.06 121.93 351.45 122.55 351.15C124.5 350.27 126.23 353.65 126.71 354.97Z" fill="#455A64"/>
<path d="M124.9 357.81C123.7 356.82 122.99 359.56 122.76 360.31C121.18 365.36 120.3 371.38 121.21 376.61C122.19 382.36 123.23 388.11 122.81 393.93C122.75 394.12 122.7 394.31 122.64 394.5C122.63 394.68 122.61 394.86 122.59 395.05C122.57 395.19 122.69 395.26 122.8 395.24C122.82 395.12 122.84 395.01 122.85 394.9C123.02 394.36 123.17 393.81 123.31 393.27C123.32 393.23 123.33 393.19 123.34 393.16C124.34 389.26 124.8 385.18 125.35 381.24C126.14 375.66 126.7 370 126.25 364.37C126.14 363.01 125.99 361.65 125.74 360.31C125.61 359.61 125.49 358.29 124.9 357.81ZM125.58 361.22C125.8 362.64 125.94 364.07 126.02 365.51C126.29 370.46 125.82 375.43 125.16 380.33C124.59 384.52 124.13 388.88 123.05 393.03C123.32 389.72 123.1 386.4 122.63 383.08C122.28 380.6 121.76 378.15 121.39 375.67C120.97 372.87 121.27 370.11 121.69 367.32C122.07 364.77 122.41 362 123.37 359.59C123.56 359.1 124.12 358.01 124.55 358.08C125.29 358.22 125.49 360.65 125.58 361.22Z" fill="white"/>
<path d="M92.3503 413.41C92.3603 413.4 92.3503 413.39 92.3403 413.39Z" fill="#455A64"/>
<path d="M122.99 466.26C123.08 466.32 123.1 466.4 123.08 466.48V466.49C123.06 466.56 123 466.63 122.92 466.64C122.87 466.65 122.81 466.65 122.76 466.62C118.08 464.25 113.61 460.49 108.18 460.21C103.94 459.99 100.29 460.51 96.26 458.77C92.2 457.02 88.46 454.29 85.48 451.03C84.11 449.53 82.88 447.9 81.8 446.17C81.29 445.34 79.61 443.27 79.85 442.21C80.94 437.23 95.71 446.09 97.67 447.28C106.35 452.56 115.19 458.5 122.44 465.68C122.46 465.7 122.47 465.73 122.46 465.76C122.45 465.79 122.44 465.83 122.41 465.84C122.6 466 122.79 466.13 122.99 466.26Z" fill="#455A64"/>
<path d="M122.99 466.26C122.8 466.12 122.61 465.99 122.42 465.87C122.45 465.85 122.47 465.82 122.47 465.79C117.67 462.15 112.58 458.84 107.47 455.66C101.98 452.25 96.36 448.76 90.45 446.09C89.64 445.72 86.29 443.72 85.58 445.02C84.9 446.27 88.37 449.3 89.11 449.97C93.49 453.89 99.2 455.68 104.73 457.3C108.32 458.36 111.84 459.36 115.05 461.34C117.75 463 120.24 464.97 122.92 466.65C123 466.63 123.06 466.57 123.08 466.5C121.71 465.63 120.39 464.67 119.07 463.72C120.41 464.64 121.75 465.56 123.09 466.49C123.1 466.41 123.08 466.33 122.99 466.26ZM110.89 458.87C105.52 456.77 99.75 455.85 94.57 453.21C92.09 451.95 89.76 450.33 87.88 448.25C87.52 447.86 85.77 446.1 86.16 445.4C86.42 444.93 87.82 445.36 88.02 445.44C89.55 446.01 91.03 446.69 92.49 447.43C97.55 450.01 102.46 452.93 107.29 455.92C109.97 457.58 112.59 459.31 115.19 461.08C113.83 460.23 112.41 459.46 110.89 458.87Z" fill="white"/>
<path d="M101.63 363.25C102.21 367.74 101.31 372.42 100.08 376.75C97.2404 386.74 91.7604 396.02 90.0204 406.33C89.9504 406.74 89.8904 407.14 89.8304 407.54C89.9204 408.07 89.8504 407.94 89.6804 407.32C89.6804 407.32 89.6704 407.32 89.6804 407.31C88.9304 404.57 86.3204 392.49 87.5104 383.82C88.2604 378.41 90.1204 373.3 91.9904 368.2C93.0604 365.29 94.1004 362.37 95.1904 359.47C95.5404 358.54 96.0304 355.88 97.4404 355.68C100.18 355.27 101.4 361.5 101.63 363.25Z" fill="#455A64"/>
<path d="M96.9001 364.15C96.4101 363.9 96.0301 364.07 95.6901 364.47C95.3101 364.93 95.2401 365.7 95.1001 366.24C94.8201 367.3 94.5501 368.36 94.2801 369.42C92.3901 376.74 89.8401 384.21 89.1401 391.76C88.6701 396.76 88.9401 401.83 89.6801 406.83C89.6801 406.99 89.6901 407.16 89.6901 407.32V407.33C89.8601 407.96 89.9301 408.09 89.8401 407.55C89.9001 407.15 89.9601 406.74 90.0301 406.34C90.0301 405.78 90.0501 405.22 90.0801 404.65C90.3201 400.74 91.4301 397 92.6401 393.3C94.9101 386.26 96.9201 379.1 97.8001 371.74C97.9801 370.11 98.1501 368.42 97.9701 366.78C97.8801 366.03 97.6901 364.55 96.9001 364.15ZM97.5601 366.52C97.6301 366.89 97.6501 367.24 97.6701 367.61C97.7101 368.39 97.6701 369.17 97.6101 369.95C97.4801 371.83 97.1801 373.69 96.8601 375.55C95.6901 382.18 93.7401 388.51 91.7401 394.93C90.7501 398.09 89.9301 401.32 89.7301 404.64C89.4501 401.86 89.3001 399.08 89.3101 396.3C89.3401 389.17 91.3201 382.42 93.0801 375.57C93.5201 373.88 93.9601 372.18 94.3901 370.48C94.6001 369.63 94.8201 368.78 95.0401 367.94L95.3601 366.67C95.5701 365.82 95.4501 365.46 96.4001 365.2C97.5901 364.87 97.4001 365.53 97.5601 366.52Z" fill="white"/>
<path d="M108.74 405.03C109.98 408.35 110.89 411.79 111.47 415.28C112.63 422.29 111.56 430.39 113.4 437.38C113.56 437.83 113.71 438.3 113.84 438.77C113.89 438.95 113.94 439.12 113.98 439.29C114 439.39 113.85 439.44 113.81 439.35C113.67 439.05 113.52 438.76 113.37 438.46C113.37 438.45 113.37 438.45 113.37 438.44C113.3 438.28 113.21 438.13 113.14 437.97C109.66 431.17 105.2 424.95 103.73 417.32C102.82 412.62 101.36 399.67 104.46 398.68C105.82 398.25 107.98 403.01 108.74 405.03Z" fill="#455A64"/>
<path d="M105.92 405.72C105.18 406.07 105.21 407.52 105.16 408.13C105.04 409.7 105.19 411.39 105.33 412.96C105.6 415.95 106.27 418.88 107.08 421.76C108.63 427.26 110.57 432.82 113.12 437.99C113.19 438.15 113.28 438.3 113.35 438.46C113.35 438.47 113.35 438.47 113.35 438.48C113.51 438.78 113.65 439.07 113.79 439.37C113.83 439.46 113.98 439.41 113.96 439.31C113.92 439.14 113.87 438.96 113.82 438.79C111.53 432.8 110.58 426.5 109.78 420.13C109.63 418.68 108.47 404.51 105.92 405.72ZM108.24 411.46C108.46 412.8 108.65 414.13 108.83 415.48C109.25 418.61 109.6 421.76 110.06 424.89C110.56 428.29 111.2 431.71 112.19 435.01C110.61 431.22 109.13 427.41 107.94 423.46C107.17 420.87 106.47 418.25 106.02 415.57C105.78 414.12 105.62 412.66 105.57 411.19C105.54 410.49 105.24 406.43 106.08 406.08C107.12 405.65 108.15 410.89 108.24 411.46Z" fill="white"/>
<path d="M138.37 391.19C140.08 393.3 139.27 397.5 138.35 399.71C137.02 402.88 134.6 405.37 131.94 407.47C128.08 410.53 123.77 412.88 120.52 416.65C117.29 420.38 118.33 419.26 116.07 424.04C116.03 424.13 115.94 424.14 115.86 424.06C115.75 423.95 115.66 423.68 115.72 423.29C115.72 423.25 115.73 423.2 115.74 423.16C117.82 415.29 121.86 409.1 127.21 402.96C130.25 399.48 132.08 395.07 135.24 391.72C136.41 390.48 137.19 389.74 138.37 391.19Z" fill="#455A64"/>
<path d="M136.55 395.33C135.39 394.78 133.94 397.13 133.34 397.98C131.63 400.44 129.95 402.89 127.81 405.01C125.92 406.87 124.04 408.68 122.41 410.78C119.93 413.97 117.95 417.53 116.55 421.31C116.24 421.95 115.96 422.61 115.71 423.29C115.65 423.68 115.74 423.94 115.85 424.06C115.88 423.97 115.91 423.89 115.93 423.8C117.82 418.75 121.03 414.87 125.47 411.5C129.88 408.16 134.03 404.45 136.39 399.33C136.82 398.42 137.62 395.84 136.55 395.33ZM136.37 398.67C135.99 399.55 135.55 400.41 135.06 401.24C134.17 402.73 133.11 404.13 131.95 405.43C129.88 407.73 127.46 409.6 125 411.46C122.11 413.66 119.59 416.22 117.73 419.2C119.16 416.01 120.97 412.99 123.2 410.26C125.19 407.83 127.62 405.85 129.66 403.49C130.6 402.4 131.43 401.23 132.27 400.05C132.72 399.41 133.16 398.77 133.61 398.14C134 397.58 135.27 395.57 136.11 395.73C137.19 395.94 136.52 398.32 136.37 398.67Z" fill="white"/>
<path d="M66.2904 371.33C73.2504 379.19 79.7104 387.44 85.8704 395.93C85.9504 396.04 85.9404 396.17 85.8804 396.26C85.8704 396.28 85.8604 396.3 85.8504 396.32C85.8904 396.37 85.9304 396.43 85.9604 396.48C86.0004 396.54 85.9704 396.61 85.9204 396.64C85.9104 396.64 85.9004 396.65 85.8804 396.66C85.8704 396.66 85.8704 396.66 85.8704 396.66C85.8304 396.67 85.7804 396.66 85.7504 396.63C81.4104 392.38 77.3304 388.4 71.8804 385.59C66.8904 383.02 61.9604 380.89 57.6304 377.24C53.9304 374.11 43.4304 358.69 45.1404 355.01C46.2804 352.53 60.7604 365.09 66.2904 371.33Z" fill="#455A64"/>
<path d="M57.6802 366.09C56.7802 365.22 54.1102 361.76 52.4102 362.46C50.7102 363.17 53.4202 366.65 53.9202 367.39C55.7802 370.09 57.7502 372.74 60.1102 375.04C62.4602 377.33 65.2402 378.84 67.9602 380.63C74.6302 385.04 80.5102 390.78 85.8802 396.67H85.8902C85.9002 396.67 85.9102 396.66 85.9302 396.65C85.9802 396.61 86.0102 396.55 85.9702 396.49C85.9402 396.44 85.9002 396.38 85.8602 396.33C85.8702 396.32 85.8902 396.3 85.8902 396.27C77.4802 385.34 67.5302 375.66 57.6802 366.09ZM59.1402 367.95C63.8802 372.58 68.6002 377.24 73.1602 382.06C77.3802 386.53 81.4202 391.15 85.2902 395.92C81.6402 391.82 77.6602 387.92 73.4502 384.41C68.5502 380.3 62.6202 377.66 58.3802 372.78C56.3602 370.46 54.1802 367.83 52.8202 365.07C52.6302 364.7 51.9402 363.44 52.4102 362.95C52.8202 362.51 54.0202 363.06 55.5202 364.43C56.7602 365.55 57.9402 366.77 59.1402 367.95Z" fill="white"/>
<path d="M95.2404 428.91C95.2504 428.95 95.2404 428.99 95.2204 429.02C95.1804 429.11 95.0904 429.17 94.9904 429.14C94.7704 429.06 94.5504 429 94.3304 428.93C94.3104 428.94 94.3004 428.95 94.2704 428.95C89.2904 428.31 85.2604 429.15 80.4704 430.38C76.9104 431.29 73.2704 431.24 69.7104 430.36C65.8404 429.42 62.2104 427.59 58.8604 425.46C57.4904 424.58 53.1204 422.63 53.8304 420.23C55.0004 416.29 68.2604 421.42 70.5604 422.16C74.6704 423.49 78.7404 424.67 82.9804 425.49C87.1404 426.29 91.3004 426.98 95.1704 428.78C95.2104 428.8 95.2404 428.85 95.2404 428.91Z" fill="#455A64"/>
<path d="M92.6002 428.3C90.2002 427.74 87.8002 427.09 85.3802 426.67C82.6702 426.19 79.8902 426.25 77.1702 425.79C72.0702 424.9 67.2202 423.05 62.1802 421.93C61.5202 421.79 60.2302 421.53 60.5702 422.65C60.7102 423.14 61.4202 423.53 61.7902 423.79C62.9002 424.59 64.1102 425.28 65.3402 425.87C69.5402 427.88 74.4102 429.34 79.1102 429.13C84.5502 428.88 89.8402 427.86 95.2202 429.01C95.2402 428.97 95.2502 428.93 95.2402 428.9C94.3802 428.63 93.4902 428.44 92.6002 428.3ZM80.8202 428.63C74.9402 429.1 68.8202 427.57 63.7102 424.6C63.2302 424.32 61.9602 423.5 61.5202 423.13C61.1002 422.78 60.4902 422.03 62.0902 422.23C62.4702 422.28 62.8302 422.41 63.2002 422.5C64.5002 422.82 65.7902 423.19 67.0902 423.55C69.8502 424.34 72.6002 425.16 75.4102 425.75C77.9202 426.28 80.4102 426.49 82.9602 426.65C86.0402 426.84 89.0502 427.56 92.0602 428.21C88.3602 427.77 84.5202 428.34 80.8202 428.63Z" fill="white"/>
<path d="M80.9002 418.12C80.9202 418.19 80.9302 418.27 80.9002 418.35C80.8902 418.39 80.8802 418.43 80.8602 418.46C80.8402 418.51 80.8102 418.55 80.7702 418.58C80.7602 418.6 80.7502 418.61 80.7402 418.61C80.6502 418.68 80.5302 418.71 80.3902 418.64C79.6402 418.37 78.9402 418.04 78.2702 417.68C70.0302 414.54 61.5902 411.22 54.8802 405.4C51.4602 402.42 48.4902 398.97 45.9202 395.24C44.6602 393.41 41.1802 389.58 42.3302 387.02C43.4402 384.53 45.7302 386.11 47.2702 387.15C51.2702 389.84 55.1802 392.7 58.8102 395.86C62.4302 399.01 65.6302 402.49 68.4602 406.35C71.8302 410.95 75.0602 415.72 80.6302 417.81C80.7902 417.89 80.8702 417.99 80.9002 418.12Z" fill="#455A64"/>
<path d="M65.6802 406.47C61.0502 401.54 55.9102 397.03 50.6202 392.83C49.9402 392.28 47.9502 390.87 47.6402 392.45C47.2802 394.31 50.0302 396.51 51.0802 397.62C55.0802 401.83 59.3302 405.82 63.9702 409.32C69.1402 413.23 74.7202 416.39 80.8602 418.46C80.8802 418.42 80.9002 418.39 80.9002 418.35C70.9202 414.65 62.2702 408.16 54.7202 400.77C52.9002 398.98 51.0602 397.18 49.4002 395.25C49.1302 394.94 47.6102 392.86 48.2002 392.29C48.7202 391.79 50.8702 393.49 51.1302 393.71C52.3302 394.7 53.5302 395.7 54.7302 396.71C59.2202 400.52 63.3602 404.58 67.4202 408.84C71.3302 412.94 75.7202 416.13 80.9102 418.34C80.9302 418.26 80.9302 418.18 80.9102 418.11C74.8602 415.46 70.1902 411.27 65.6802 406.47Z" fill="white"/>
<path d="M65.7502 332.41C68.5202 336.21 70.9402 340.21 72.2602 344.76C74.2702 351.72 74.1502 359 75.1502 366.12C75.1502 366.15 75.1602 366.18 75.1602 366.2C75.4302 368.13 75.7802 370.05 76.2902 371.95C76.3902 372.35 76.5102 372.76 76.6302 373.16C76.6602 373.26 76.6402 373.35 76.5902 373.41C76.5402 373.45 76.4902 373.48 76.4302 373.49C76.3802 373.5 76.3102 373.5 76.2602 373.48V373.47C76.1802 373.44 76.1102 373.38 76.0702 373.28C75.8702 372.71 75.6902 372.13 75.5202 371.56C75.4802 371.55 75.4502 371.53 75.4302 371.48C71.1802 362.59 66.3502 353.61 61.5202 344.82C59.3802 340.93 57.4002 336.9 56.0302 332.66C55.2102 330.15 54.2202 326.29 56.0502 323.98C56.1602 323.83 56.3402 323.69 56.5402 323.72C60.5402 324.4 63.5502 329.4 65.7502 332.41Z" fill="#455A64"/>
<path d="M61.31 332.97C59.39 332.35 59.78 334.63 60.09 335.78C60.92 338.83 62.29 341.82 63.48 344.76C64.83 348.08 66.23 351.37 67.67 354.65C70.4 360.83 74.21 366.98 76.24 373.46C76.24 373.47 76.25 373.48 76.25 373.49V373.5C76.31 373.52 76.37 373.52 76.42 373.51C76.48 373.5 76.54 373.47 76.58 373.43C76.48 372.94 76.38 372.46 76.28 371.97C75.9 370.06 75.53 368.14 75.15 366.22C75.15 366.2 75.14 366.17 75.14 366.14C73.32 356.92 71.31 347.78 66.47 339.32C65.35 337.33 63.67 333.73 61.31 332.97ZM67.06 341.04C69.93 346.4 71.85 352.09 73.18 357.93C74.24 362.59 74.95 367.32 75.92 372C74.58 368.24 72.62 364.67 70.93 361.03C68.28 355.32 65.76 349.54 63.42 343.7C62.85 342.3 62.3 340.89 61.75 339.47C61.26 338.22 60.23 336.27 60.22 334.9C60.21 332.25 62.42 334.05 63.14 334.83C63.77 335.52 64.26 336.31 64.76 337.1C65.58 338.38 66.35 339.7 67.06 341.04Z" fill="white"/>
<path d="M124.54 380.36C123.33 389.1 121.66 397.53 119.28 406.04C117.12 413.78 114.87 421.51 113.82 429.49C112.42 440.09 113.38 451.71 118.78 460.93C109.75 450.47 102.68 438.37 97.5004 425.35C88.7904 403.48 80.9004 381 70.3304 359.94C70.1504 359.59 69.6704 359.86 69.8004 360.21C74.1304 371.71 79.2204 382.93 83.6604 394.4C88.0604 405.79 92.1504 417.32 96.7604 428.63C97.2604 429.85 97.7804 431.06 98.3104 432.26C91.5604 423.89 81.6604 417.73 71.9504 414.16C71.8304 414.11 71.7704 414.3 71.8904 414.35C78.7904 417.39 85.0904 421.7 90.6204 426.8C95.4604 431.26 99.1404 436.43 103.03 441.65C111.83 457.31 124.12 470.31 139.78 480C139.94 480.1 140.1 479.85 139.94 479.75C133.71 475.56 128.05 470.77 122.94 465.48C114.25 453.98 113.84 438.63 116.44 424.68C117.8 417.36 119.73 410.18 121.47 402.95C123.23 395.62 125.15 387.98 124.96 380.39C124.94 380.11 124.57 380.1 124.54 380.36Z" fill="#455A64"/>
<path d="M492.08 243.93V369.35L353.29 348.16L352.49 227.68L492.08 243.93Z" fill="white"/>
<path d="M492.08 243.93C492.08 243.93 467.29 248.41 446.78 244.49C401.59 235.86 376.05 232.18 353.31 229.31L352.49 227.69L353.29 348.17L492.08 369.36V243.93Z" fill="#DBDBDB"/>
<path d="M492.08 243.93C481.22 245.09 470.25 245.89 459.34 244.73C450.11 243.63 436.25 241.35 426.9 240.1C405.67 236.76 383.15 235.45 361.84 232.74C383.58 234.78 405.43 235.84 427.04 239.15C437.68 240.5 448.79 242.52 459.43 243.87C470.27 245.17 481.21 244.57 492.08 243.93Z" fill="#EBEBEB"/>
<path d="M492.08 243.93C475.82 245.17 457.78 242.88 441.65 240.32C430.81 238.76 370.22 230.56 358.06 228.9C391.62 232.43 425.12 236.77 458.47 241.88C469.59 243.45 480.84 244.13 492.08 243.93Z" fill="#EBEBEB"/>
<path d="M481.61 254.23C466.63 256.5 451.43 254.94 436.58 252.34C416.96 249.32 396.63 245.87 377.03 243.11C372.06 242.37 367.08 241.76 362.09 241.14C382.13 242.76 402 245.95 421.85 249.02C431.77 250.62 441.68 252.29 451.6 253.75C461.52 255.14 471.63 255.16 481.61 254.23Z" fill="#C7C7C7"/>
<path d="M481.61 258.46C466.63 260.73 451.43 259.17 436.58 256.57C416.96 253.55 396.63 250.1 377.03 247.34C372.06 246.6 367.08 245.99 362.09 245.37C382.13 246.99 402 250.18 421.85 253.25C431.77 254.85 441.68 256.52 451.6 257.98C461.52 259.38 471.63 259.39 481.61 258.46Z" fill="#C7C7C7"/>
<path d="M481.61 262.7C466.63 264.97 451.43 263.41 436.58 260.81C416.96 257.79 396.63 254.34 377.03 251.58C372.06 250.84 367.08 250.23 362.09 249.61C382.13 251.23 402 254.42 421.85 257.49C431.77 259.09 441.68 260.76 451.6 262.22C461.52 263.61 471.63 263.63 481.61 262.7Z" fill="#C7C7C7"/>
<path d="M481.61 266.93C466.63 269.2 451.43 267.64 436.58 265.04C416.96 262.02 396.63 258.57 377.03 255.81C372.06 255.07 367.08 254.46 362.09 253.84C382.13 255.46 402 258.65 421.85 261.72C431.77 263.32 441.68 264.99 451.6 266.45C461.52 267.85 471.63 267.86 481.61 266.93Z" fill="#C7C7C7"/>
<path d="M481.61 271.17C466.63 273.44 451.43 271.88 436.58 269.28C416.96 266.26 396.63 262.81 377.03 260.05C372.06 259.31 367.08 258.7 362.09 258.08C382.13 259.7 402 262.89 421.85 265.96C431.77 267.56 441.68 269.23 451.6 270.69C461.52 272.08 471.63 272.1 481.61 271.17Z" fill="#C7C7C7"/>
<path d="M481.61 275.4C466.63 277.67 451.43 276.11 436.58 273.51C416.96 270.49 396.63 267.04 377.03 264.28C372.06 263.54 367.08 262.93 362.09 262.31C382.13 263.93 402 267.12 421.85 270.19C431.77 271.79 441.68 273.46 451.6 274.92C461.52 276.31 471.63 276.33 481.61 275.4Z" fill="#C7C7C7"/>
<path d="M481.61 279.64C466.63 281.91 451.43 280.35 436.58 277.75C416.96 274.73 396.63 271.28 377.03 268.52C372.06 267.78 367.08 267.17 362.09 266.55C382.13 268.17 402 271.36 421.85 274.43C431.77 276.03 441.68 277.7 451.6 279.16C461.52 280.55 471.63 280.57 481.61 279.64Z" fill="#C7C7C7"/>
<path d="M481.61 283.87C466.63 286.14 451.43 284.58 436.58 281.98C416.96 278.96 396.63 275.51 377.03 272.75C372.06 272.01 367.08 271.4 362.09 270.78C382.13 272.4 402 275.59 421.85 278.66C431.77 280.26 441.68 281.93 451.6 283.39C461.52 284.78 471.63 284.8 481.61 283.87Z" fill="#C7C7C7"/>
<path d="M481.61 288.1C466.63 290.37 451.43 288.81 436.58 286.21C416.96 283.19 396.63 279.74 377.03 276.98C372.06 276.24 367.08 275.63 362.09 275.01C382.13 276.63 402 279.82 421.85 282.89C431.77 284.49 441.68 286.16 451.6 287.62C461.52 289.02 471.63 289.03 481.61 288.1Z" fill="#C7C7C7"/>
<path d="M481.61 292.34C466.63 294.61 451.43 293.05 436.58 290.45C416.96 287.43 396.63 283.98 377.03 281.22C372.06 280.48 367.08 279.87 362.09 279.25C382.13 280.87 402 284.06 421.85 287.13C431.77 288.73 441.68 290.4 451.6 291.86C461.52 293.25 471.63 293.27 481.61 292.34Z" fill="#C7C7C7"/>
<path d="M481.61 296.57C466.63 298.84 451.43 297.28 436.58 294.68C416.96 291.66 396.63 288.21 377.03 285.45C372.06 284.71 367.08 284.1 362.09 283.48C382.13 285.1 402 288.29 421.85 291.36C431.77 292.96 441.68 294.63 451.6 296.09C461.52 297.49 471.63 297.5 481.61 296.57Z" fill="#C7C7C7"/>
<path d="M481.61 300.81C466.63 303.08 451.43 301.52 436.58 298.92C416.96 295.9 396.63 292.45 377.03 289.69C372.06 288.95 367.08 288.34 362.09 287.72C382.13 289.34 402 292.53 421.85 295.6C431.77 297.2 441.68 298.87 451.6 300.33C461.52 301.72 471.63 301.74 481.61 300.81Z" fill="#C7C7C7"/>
<path d="M253.379 264.71V396.16L490.899 360.64V242.06C490.899 242.06 470.919 239.99 426.099 244.06C400.799 246.36 333.359 256.06 259.999 260.23C259.989 260.23 254.629 264.64 253.379 264.71Z" fill="white"/>
<path d="M253.25 396.31V264.6L253.37 264.59C254.33 264.54 258.07 261.65 259.91 260.13L259.94 260.1H259.98C312.75 257.1 362.609 251.22 395.609 247.33C408.659 245.79 418.979 244.58 426.079 243.93C470.41 239.9 490.71 241.91 490.91 241.93L491.02 241.94V360.75L490.91 360.77L253.25 396.31ZM253.5 264.82V396.02L490.77 360.53V242.17C489.09 242.02 468.7 240.31 426.1 244.18C419 244.83 408.69 246.04 395.64 247.58C362.65 251.47 312.8 257.35 260.04 260.35C259.57 260.74 254.91 264.54 253.5 264.82Z" fill="#DBDBDB"/>
<path d="M485.11 243.23C419.14 242.76 327.14 257.69 261.22 260.82C327.18 258.23 419.13 243.85 485.11 243.23Z" fill="#EBEBEB"/>
<path d="M248.14 265.03V398.48L494.59 370.27V241.66L248.14 265.03Z" fill="#083E78"/>
<g opacity="0.1">
<path d="M248.14 265.03V398.48L494.59 370.27V241.66L248.14 265.03Z" fill="black"/>
</g>
<path d="M494.59 248.8L248.14 273.43V278.65L494.59 254.26V248.8Z" fill="#083E78"/>
<path d="M494.59 258.74L248.14 283.37V288.6L494.59 264.2V258.74Z" fill="#083E78"/>
<path d="M494.582 370.273H497.692V241.663H494.582V370.273Z" fill="#083E78"/>
<path opacity="0.2" d="M494.582 370.273H497.692V241.663H494.582V370.273Z" fill="black"/>
<path d="M257.76 268.92V483.8L495.54 447.5L496.92 241.09L257.76 268.92Z" fill="white"/>
<path d="M257.76 268.92C257.76 268.92 300.23 276.59 335.38 269.87C412.79 255.08 456.56 248.79 495.51 243.86L496.91 241.08L495.54 447.49L257.76 483.79V268.92Z" fill="#EBEBEB"/>
<path d="M257.76 268.92C276.37 270.21 295.13 271.3 313.73 269.13C331.98 266.83 351.01 263.42 369.24 261.07C397.02 257.09 424.96 254.24 452.96 252.37C462.28 251.66 471.59 250.78 480.89 249.76C471.61 250.92 462.31 251.95 453 252.81C416.26 255.56 378.13 260.53 341.61 266.04C333.43 267.21 321.94 269.17 313.82 270C295.15 272.06 276.39 270.66 257.76 268.92Z" fill="#EBEBEB"/>
<path d="M257.76 268.92C277.01 269.46 296.32 268.33 315.38 265.71C362.65 258.49 411.09 252.13 458.64 246.46L487.36 243.17C442.53 249.01 388.51 256.08 344.1 262.4L315.49 266.56C296.38 269.06 277.02 269.9 257.76 268.92Z" fill="#EBEBEB"/>
<path d="M275.7 286.57C292.79 288.34 310.12 288.33 327.15 286.04C344.17 283.59 361.15 280.73 378.14 278.02C412.14 272.71 446.17 267.25 480.47 264.17C446.26 268.02 412.29 273.62 378.3 279.01C363.3 281.33 342.11 284.87 327.25 286.81C310.13 288.95 292.77 288.69 275.7 286.57Z" fill="#C7C7C7"/>
<path d="M275.7 293.83C292.79 295.6 310.12 295.59 327.15 293.3C344.17 290.85 361.15 287.99 378.14 285.28C412.14 279.97 446.17 274.51 480.47 271.43C446.26 275.28 412.29 280.88 378.3 286.27C363.3 288.59 342.11 292.13 327.25 294.07C310.13 296.21 292.77 295.95 275.7 293.83Z" fill="#C7C7C7"/>
<path d="M275.7 301.08C292.79 302.85 310.12 302.84 327.15 300.55C344.17 298.1 361.15 295.24 378.14 292.53C412.14 287.22 446.17 281.76 480.47 278.68C446.26 282.53 412.29 288.13 378.3 293.52C363.3 295.84 342.11 299.38 327.25 301.32C310.13 303.46 292.77 303.2 275.7 301.08Z" fill="#C7C7C7"/>
<path d="M275.7 308.34C292.79 310.11 310.12 310.1 327.15 307.81C344.17 305.36 361.15 302.5 378.14 299.79C412.14 294.48 446.17 289.02 480.47 285.94C446.26 289.79 412.29 295.39 378.3 300.78C363.3 303.1 342.11 306.64 327.25 308.58C310.13 310.72 292.77 310.46 275.7 308.34Z" fill="#C7C7C7"/>
<path d="M275.7 315.59C292.79 317.36 310.12 317.35 327.15 315.06C344.17 312.61 361.15 309.75 378.14 307.04C412.14 301.73 446.17 296.27 480.47 293.19C446.26 297.04 412.29 302.64 378.3 308.03C363.3 310.35 342.11 313.89 327.25 315.83C310.13 317.97 292.77 317.71 275.7 315.59Z" fill="#C7C7C7"/>
<path d="M275.7 322.85C292.79 324.62 310.12 324.61 327.15 322.32C344.17 319.87 361.15 317.01 378.14 314.3C412.14 308.99 446.17 303.53 480.47 300.45C446.26 304.3 412.29 309.9 378.3 315.29C363.3 317.61 342.11 321.15 327.25 323.09C310.13 325.23 292.77 324.96 275.7 322.85Z" fill="#C7C7C7"/>
<path d="M275.7 330.1C292.79 331.87 310.12 331.86 327.15 329.57C344.17 327.12 361.15 324.26 378.14 321.55C412.14 316.24 446.17 310.78 480.47 307.7C446.26 311.55 412.29 317.15 378.3 322.54C363.3 324.86 342.11 328.4 327.25 330.34C310.13 332.48 292.77 332.22 275.7 330.1Z" fill="#C7C7C7"/>
<path d="M275.7 337.35C292.79 339.12 310.12 339.11 327.15 336.82C344.17 334.37 361.15 331.51 378.14 328.8C412.14 323.49 446.17 318.03 480.47 314.95C446.26 318.8 412.29 324.4 378.3 329.79C363.3 332.11 342.11 335.65 327.25 337.59C310.13 339.73 292.77 339.47 275.7 337.35Z" fill="#C7C7C7"/>
<path d="M275.7 344.61C292.79 346.38 310.12 346.37 327.15 344.08C344.17 341.63 361.15 338.77 378.14 336.06C412.14 330.75 446.17 325.29 480.47 322.21C446.26 326.06 412.29 331.66 378.3 337.05C363.3 339.37 342.11 342.91 327.25 344.85C310.13 346.99 292.77 346.73 275.7 344.61Z" fill="#C7C7C7"/>
<path d="M275.7 351.86C292.79 353.63 310.12 353.62 327.15 351.33C344.17 348.88 361.15 346.02 378.14 343.31C412.14 338 446.17 332.54 480.47 329.46C446.26 333.31 412.29 338.91 378.3 344.3C363.3 346.62 342.11 350.16 327.25 352.1C310.13 354.24 292.77 353.98 275.7 351.86Z" fill="#C7C7C7"/>
<path d="M275.7 359.12C292.79 360.89 310.12 360.88 327.15 358.59C344.17 356.14 361.15 353.28 378.14 350.57C412.14 345.26 446.17 339.8 480.47 336.72C446.26 340.57 412.29 346.17 378.3 351.56C363.3 353.88 342.11 357.42 327.25 359.36C310.13 361.5 292.77 361.24 275.7 359.12Z" fill="#C7C7C7"/>
<path d="M275.7 366.37C292.79 368.14 310.12 368.13 327.15 365.84C344.17 363.39 361.15 360.53 378.14 357.82C412.14 352.51 446.17 347.05 480.47 343.97C446.26 347.82 412.29 353.42 378.3 358.81C363.3 361.13 342.11 364.67 327.25 366.61C310.13 368.75 292.77 368.49 275.7 366.37Z" fill="#C7C7C7"/>
<path d="M453.92 249.58L449.97 249.96V249.41C449.97 248.2 450.85 247.14 451.95 247.04C453.04 246.93 453.93 247.83 453.93 249.03V249.58H453.92Z" fill="#37474F"/>
<path d="M473.41 247.42V271.75L463.53 265.27L453.65 273.42V249.09C453.65 247.86 452.75 246.95 451.64 247.06L471.41 245.39C472.51 245.29 473.41 246.19 473.41 247.42Z" fill="#455A64"/>
<path d="M620.68 299.83V496.03L259.79 468.88V265.71C259.79 265.71 294.01 262.16 370.81 269.14C414.16 273.08 480.74 272.87 606.43 280.01C606.43 280.02 618.53 299.71 620.68 299.83Z" fill="white"/>
<path d="M269.7 267.73C382.73 266.93 501.74 279.44 614.69 284.81C501.68 280.37 382.73 268.79 269.7 267.73Z" fill="#EBEBEB"/>
<path d="M629.659 292.2V500L253.459 485.39V265.04L629.659 292.2Z" fill="#083E78"/>
<g opacity="0.1">
<path d="M629.659 292.2V500L253.459 485.39V265.04L629.659 292.2Z" fill="black"/>
</g>
<path d="M253.459 277.27L629.659 306.58V315.53L253.459 286.63V277.27Z" fill="#083E78"/>
<path d="M253.459 294.3L629.659 323.61V332.57L253.459 303.66V294.3Z" fill="#083E78"/>
<path d="M253.46 265.04H248.14V485.39H253.46V265.04Z" fill="#083E78"/>
<path opacity="0.2" d="M253.46 265.04H248.14V485.39H253.46V265.04Z" fill="black"/>
<path d="M629.66 500H327.58L629.66 281.02V500Z" fill="#083E78"/>
<path opacity="0.2" d="M629.66 500H327.58L629.66 281.02V500Z" fill="white"/>
<path d="M577.48 318.84L524.87 356.98V500H577.48V318.84Z" fill="#083E78"/>
<path d="M475.08 500L475.57 392.71L451.58 410.12V500H475.08Z" fill="#083E78"/>
<path opacity="0.1" d="M629.66 294.65C540.05 360.92 439.14 434.72 348.81 500C438.41 433.72 539.33 359.93 629.66 294.65Z" fill="black"/>
<path d="M0.109863 500L512.53 284.71L253.39 265.04L476.73 241.09L354 228.27L496.92 241.09L306.64 264.81L629.66 281.02L327.58 500H0.109863Z" fill="#083E78"/>
<path opacity="0.5" d="M0.109863 500L512.53 284.71L253.39 265.04L476.73 241.09L354 228.27L496.92 241.09L306.64 264.81L629.66 281.02L327.58 500H0.109863Z" fill="white"/>
<path opacity="0.3" d="M451.58 410.12L213.89 410.18L256.42 392.32L475.57 392.71L451.58 410.12Z" fill="#083E78"/>
<path opacity="0.3" d="M524.87 356.98L577.48 318.84H431.3L340.59 356.95L524.87 356.98Z" fill="#083E78"/>
<path d="M185.51 475C176.97 470.68 158.69 462.53 158.69 462.53L158.45 414.73L111.72 414.87C111.72 414.87 111.51 462.7 111.51 462.74C111.65 467.2 112 466.13 112.21 469.73L185.51 475Z" fill="#EB9481"/>
<path d="M192.13 487.74C189.59 488.6 116.4 488.72 113.63 486.96C113.61 486.95 113.6 486.93 113.58 486.91C113.28 486.65 113.04 485.66 112.81 484.1C112.8 484.08 112.8 484.06 112.8 484.03C112.3 480.52 111.92 474.2 111.64 466.76C116.12 467.24 130.65 466.97 139.17 467.85C148.42 468.81 181.72 474.58 183.41 473.94H183.42C186.52 475.47 188.86 476.7 189.59 477.27C192.43 479.54 194.7 486.89 192.13 487.74Z" fill="#263238"/>
<path opacity="0.1" d="M192.13 487.74C190.98 488.13 175.56 488.37 158.68 488.36L167.18 466.36C175.68 470.23 187.76 475.84 189.58 477.29C192.43 479.54 194.7 486.89 192.13 487.74Z" fill="black"/>
<path d="M108.62 461.58L161.55 460.62C161.55 460.62 160.94 371.33 160.38 342.59C159.73 309.77 155.16 211.37 155.16 211.37L115.6 212.46C115.6 212.46 107.73 235.49 108.54 249.67C108.78 253.78 111.53 259.72 112.74 264.09L115.3 345.46L108.62 461.58Z" fill="#263238"/>
<path d="M112.28 451.95C113.64 451.68 115.11 451.67 116.49 451.54C118.05 451.4 119.61 451.26 121.17 451.17C124.18 450.99 127.19 450.89 130.2 450.83C136.28 450.71 142.36 450.65 148.43 450.74C151.89 450.79 155.35 450.87 158.8 451.01C158.94 451.02 158.93 451.22 158.8 451.23C152.78 451.55 146.75 451.74 140.73 451.96C134.72 452.18 128.68 452.39 122.66 452.38C120.93 452.38 119.2 452.39 117.48 452.32C115.77 452.25 113.99 452.38 112.3 452.16C112.2 452.14 112.16 451.98 112.28 451.95Z" fill="#37474F"/>
<path d="M155.02 403.75C155.24 389.49 155.21 371.82 155.21 357.56C155.2 329.03 154.61 300.5 153.46 271.99C152.82 255.99 151.95 240.01 151.03 224.03C151.02 223.85 151.3 223.85 151.31 224.03C153.62 252.62 154.99 281.29 155.81 309.96C156.63 338.48 156.92 370.42 156.29 398.95C155.94 414.96 156.55 430.63 155.48 446.62C155.47 446.76 155.26 446.76 155.26 446.62C155.51 432.21 154.79 418.16 155.02 403.75Z" fill="#37474F"/>
<path d="M201.53 475.17H244.01C235.62 470.89 216.85 462.53 216.85 462.53L214.67 414.73L167.94 414.87C167.94 414.87 169.67 462.7 169.67 462.74C169.81 467.2 171.03 466.13 171.24 469.73L201.54 474.99V475.17H201.53Z" fill="#EB9481"/>
<path d="M250.29 487.74C247.75 488.6 174.56 488.72 171.79 486.96C171.77 486.95 171.76 486.93 171.74 486.91C171.44 486.65 171.2 485.66 170.97 484.1C170.96 484.08 170.96 484.06 170.96 484.03C170.46 480.52 170.08 474.2 169.8 466.76C174.28 467.24 188.81 466.97 197.33 467.85C206.58 468.81 239.88 474.58 241.57 473.94H241.58C244.68 475.47 247.02 476.7 247.75 477.27C250.59 479.54 252.86 486.89 250.29 487.74Z" fill="#263238"/>
<path d="M139.94 262.48C139.95 262.51 163.54 330.3 164.28 342.87C164.91 353.58 166.58 460.56 166.58 460.56L218.29 459.37C218.29 459.37 210.08 348.77 208.91 337.62C207.07 320.06 197.57 280.16 185.01 237.04C182.66 228.97 175.03 210.83 175.03 210.83L116.81 212.44C116.81 212.44 118.06 239.18 130.77 258.2C130.77 258.2 136.36 260.6 139.94 262.48Z" fill="#263238"/>
<path d="M169.21 450.64C175 450.33 181.01 450.01 186.82 449.98C192.57 449.95 198.34 449.87 204.1 450.02C207.36 450.1 210.62 450.11 213.88 450.31C213.99 450.32 213.99 450.46 213.88 450.47C208.09 450.93 202.27 451.03 196.47 451.15C190.71 451.26 184.95 451.37 179.19 451.29C175.93 451.25 172.67 451.19 169.41 451.08C169.05 451.05 168.85 450.65 169.21 450.64Z" fill="#37474F"/>
<path d="M170.84 217.1C172.92 223.6 196.8 316.78 199.58 329.81C202.38 342.92 209.72 443.01 209.69 444.71C209.69 444.87 209.46 444.87 209.44 444.71C207.95 432.72 199.95 335.42 198.7 330.74C195.25 317.87 172.28 224.63 170.46 217.21C170.38 216.95 170.76 216.86 170.84 217.1Z" fill="#37474F"/>
<path d="M153.71 258.46C151.01 258.95 148.3 259.29 145.56 259.32C142.79 259.35 140.12 258.96 137.37 258.71C134.76 258.47 132.12 258.88 129.52 258.98C126.88 259.08 124.19 258.91 121.62 258.24C121.5 258.21 121.44 258.39 121.56 258.43C124.12 259.16 126.67 259.82 129.32 260.11C132.04 260.41 134.73 259.99 137.45 260.11C140.25 260.23 142.99 260.59 145.8 260.36C148.52 260.14 151.21 259.6 153.77 258.64C153.88 258.59 153.81 258.44 153.71 258.46Z" fill="#37474F"/>
<path d="M158.43 317.52C157.82 315.43 157.24 313.34 156.59 311.26C155.29 307.05 153.96 302.85 152.53 298.68C149.68 290.4 146.98 282.07 143.98 273.84C142.28 269.17 140.74 264.44 138.77 259.87C138.72 259.76 138.56 259.81 138.58 259.93C139.63 264.21 141.05 268.39 142.35 272.6C143.64 276.81 145.01 281 146.39 285.19C149.12 293.51 151.8 301.84 154.77 310.09C155.6 312.4 156.45 314.71 157.34 317C158.25 319.34 158.98 321.76 160.06 324.03C160.12 324.15 160.29 324.1 160.27 323.96C159.81 321.78 159.05 319.66 158.43 317.52Z" fill="#37474F"/>
<path d="M160.79 106.07C160.79 106.07 150.95 100.6 140.59 109.71C128.28 120.54 131.8 158.09 131 161.44C130.2 164.79 128.75 165.57 128.23 168.57C127.71 171.57 130.18 173.55 130.47 174.62C130.76 175.69 127.72 181.16 127.72 181.16C127.72 181.16 144.18 185.65 154.56 183.71C164.93 181.77 176.63 174.77 176.63 174.77C176.63 174.77 174.31 171.43 174.32 169.85C174.33 168.28 176.19 166.19 176.07 163.34C175.95 160.48 171.65 156.96 171.22 155.43C170.8 153.89 173.28 125.51 170.88 115.57C168.48 105.62 160.79 106.07 160.79 106.07Z" fill="#263238"/>
<path d="M177.16 173.96C176.29 172.87 175.44 171.74 174.89 170.43C174.77 170.1 174.65 169.73 174.71 169.34C175.24 167.05 177.27 165.04 176.9 162.58C176.41 160.69 174.59 159.13 173.36 157.66C172.67 156.82 171.85 155.94 171.68 154.78C171.65 154.37 171.67 154.04 171.68 153.68C172.17 141.88 173.15 129.95 171.31 118.23C170.83 115.51 170.17 112.74 168.66 110.38C170.35 112.64 171.12 115.43 171.75 118.14C174.05 129.85 173.16 141.88 172.5 153.71C172.49 154.05 172.47 154.42 172.49 154.7C172.64 155.63 173.35 156.41 173.95 157.17C175.23 158.79 177.03 160.37 177.49 162.47C177.83 165.1 175.74 167.06 175.01 169.38C174.95 169.69 175.02 170.02 175.13 170.34C175.58 171.64 176.37 172.82 177.16 173.96Z" fill="#263238"/>
<path d="M126.92 179.67C127.6 178.22 128.58 176.41 129.15 174.95L129.16 174.9C129.08 174.68 128.89 174.48 128.74 174.27C127.44 172.64 126.36 170.63 126.6 168.47C126.78 165.94 128.54 163.81 129.4 161.59C130.02 160.05 129.93 158.47 129.9 156.85C129.64 143.02 129.63 119.58 140.33 109.56C141.55 108.44 142.97 107.54 144.49 106.9C143.01 107.62 141.66 108.58 140.49 109.73C130.41 120.06 130.64 143.03 130.68 156.83C130.71 158.49 130.75 160.28 130.06 161.83C129.1 164.17 127.39 165.99 127.12 168.51C126.91 170.11 127.48 171.7 128.31 173.05C128.63 173.58 129.01 174.06 129.33 174.6C129.38 174.68 129.43 174.78 129.42 174.89C128.75 176.58 127.77 178.1 126.92 179.67Z" fill="#263238"/>
<path d="M154.38 164.6C175.07 172.07 229.63 175.1 235.57 174.52C240.24 174.06 236.8 145.9 232.69 146.27C208.12 148.48 171.17 150.88 157.94 151.91C145.65 152.86 141.9 160.09 154.38 164.6Z" fill="#EB9481"/>
<path d="M247.23 142.97C251.64 143.68 256.75 144.15 260.82 146.47C264.88 148.79 265.33 156.07 264.48 157.63C263.63 159.18 256.79 168.02 252.69 165.77C248.58 163.53 255.13 157.44 255.44 156.51C255.75 155.57 256.19 154.4 255.37 154.06C254.55 153.72 237.48 152.74 237.48 152.74L247.23 142.97Z" fill="#EB9481"/>
<path d="M247.181 143.68C247.411 143.81 260.781 145.48 264.851 147.8C268.911 150.12 269.361 157.4 268.511 158.96C267.661 160.51 260.821 169.35 256.721 167.1C252.611 164.86 259.161 158.77 259.471 157.84C259.781 156.9 260.221 155.73 259.401 155.39C258.581 155.05 241.511 154.07 241.511 154.07L247.181 143.68Z" fill="#EB9481"/>
<path d="M255.611 165.81C255.461 164.88 255.901 163.86 256.251 163.01C256.631 162.08 257.19 161.23 257.83 160.47C258.39 159.81 259.121 159.24 259.561 158.48C259.971 157.78 260.181 156.8 260.171 156C260.171 155.25 259.46 155.12 258.84 155.02C257.93 154.87 256.981 154.85 256.061 154.81C255.061 154.77 254.061 154.75 253.071 154.73C252.041 154.71 250.991 154.63 249.971 154.74C249.891 154.75 249.881 154.87 249.961 154.88C250.811 155.02 251.691 155.03 252.561 155.08C253.541 155.14 254.521 155.21 255.501 155.29C256.411 155.36 257.33 155.39 258.24 155.48C258.56 155.51 259.241 155.52 259.501 155.75C259.781 155.99 259.511 156.85 259.441 157.13C259.231 158.04 258.72 158.62 258.09 159.27C257.48 159.89 256.911 160.56 256.441 161.29C256.001 161.96 255.611 162.73 255.441 163.52C255.281 164.28 255.431 165.05 255.451 165.82C255.451 165.93 255.631 165.92 255.611 165.81Z" fill="#263238"/>
<path d="M228.271 147.34C228.271 147.34 245.311 143.19 248.811 142.42C255.821 140.88 280.301 143.64 283.251 144.87C286.201 146.1 284.081 152.37 267.251 150.89C258.381 150.11 254.87 153.51 253.76 155.86C252.65 158.21 252.511 163.63 256.391 165.61C260.271 167.59 265.79 163.37 269.65 164.67C273.5 165.97 267.67 171.14 263.15 173.5C258.64 175.86 252.47 176.47 248.48 175.91C244.5 175.34 231.861 174.16 231.861 174.16L228.271 147.34Z" fill="#EB9481"/>
<path d="M262.601 165.51C260.551 165.84 258.131 166.39 256.201 165.43C254.201 164.43 253.621 162.47 253.591 160.38C253.551 158.27 254.021 156.14 255.471 154.55C256.781 153.11 258.571 152.18 260.431 151.69C262.741 151.08 265.121 151 267.491 151.07C267.601 151.07 267.591 150.91 267.481 150.9C265.291 150.73 258.601 149.98 254.861 154.21C253.331 155.94 252.971 158.02 252.981 160.18C253.001 162.16 253.431 164.3 255.201 165.47C257.361 166.89 260.311 166.11 262.681 165.63C262.791 165.6 262.711 165.49 262.601 165.51Z" fill="#263238"/>
<path d="M232.68 176.65L232.52 144.46C232.52 144.46 169.39 149.81 160.16 150.8C141.45 152.79 142.47 161.35 152.73 164.92C167.7 170.12 232.68 176.65 232.68 176.65Z" fill="#083E78"/>
<path d="M224.48 146.86C224.33 148 224.4 149.17 224.36 150.32C224.32 151.48 224.33 152.63 224.34 153.79C224.36 156.01 224.41 158.24 224.48 160.47C224.54 162.7 224.72 171.8 224.98 174.09C224.99 174.19 225.13 174.2 225.14 174.09C225.32 171.8 225.16 162.62 225.14 160.36C225.12 158.09 225.09 155.82 225.03 153.55C225 152.43 224.96 151.32 224.88 150.21C224.8 149.09 224.83 147.96 224.64 146.85C224.62 146.75 224.49 146.78 224.48 146.86Z" fill="#263238"/>
<path opacity="0.1" d="M183.75 170.79C170.46 168.92 158.22 166.83 152.72 164.92C142.46 161.35 141.44 152.79 160.16 150.81C160.7 150.75 161.42 150.68 162.31 150.6L183.75 170.79Z" fill="black"/>
<path d="M145.91 149.31C145.94 150.47 149.71 158.74 154.8 159.56C156.46 159.82 158.31 150.83 158.31 150.83L158.6 150.2L162.63 141.34L153.17 132.05L151.79 130.79C151.79 130.79 150.85 133.29 149.71 136.41C149.66 136.55 149.6 136.7 149.55 136.85C149.48 137.02 149.41 137.19 149.36 137.36C149.18 137.82 149.01 138.3 148.84 138.78C148.71 139.14 148.58 139.49 148.46 139.88C148.33 140.26 148.21 140.64 148.08 141.02C146.84 144.81 145.91 148.82 145.91 149.31Z" fill="#EB9481"/>
<path d="M149.7 136.4C150.82 144.36 156.1 148.61 158.6 150.2L162.63 141.34L153.17 132.05L151.79 130.79C151.78 130.78 150.84 133.28 149.7 136.4Z" fill="#263238"/>
<path d="M176.63 123.33C181.86 140.16 172.34 145.17 168.7 146.29C165.39 147.3 154.01 150.34 147.06 134.13C140.11 117.93 146.31 110.19 153.74 107.47C161.18 104.77 171.4 106.51 176.63 123.33Z" fill="#EB9481"/>
<path d="M173.56 120.35C173.19 120.54 172.81 120.65 172.43 120.8C171.99 120.97 171.66 121.15 171.19 121.04C170.93 120.98 170.73 120.66 170.76 120.4C170.84 119.81 171.32 119.47 171.84 119.25C172.4 119.01 172.9 118.96 173.49 119.12C174.05 119.29 174.05 120.1 173.56 120.35Z" fill="#263238"/>
<path d="M163.5 125.89C163.91 125.94 164.3 125.91 164.72 125.91C165.19 125.91 165.56 125.96 165.97 125.7C166.19 125.56 166.26 125.18 166.14 124.95C165.86 124.43 165.29 124.28 164.72 124.25C164.11 124.22 163.63 124.35 163.14 124.71C162.67 125.07 162.96 125.83 163.5 125.89Z" fill="#263238"/>
<path d="M172.63 125.16C172.63 125.11 172.73 125.2 172.74 125.24C172.95 126.42 173.39 127.74 174.54 127.91C174.58 127.92 174.58 127.97 174.54 127.98C173.2 128.07 172.64 126.32 172.63 125.16Z" fill="#263238"/>
<path d="M173.42 123.72C175.28 123.18 176.23 126.94 174.5 127.44C172.81 127.93 171.86 124.17 173.42 123.72Z" fill="#263238"/>
<path d="M174.27 123.77C174.62 123.9 175 124.18 175.37 124.12C175.79 124.04 175.99 123.56 176.16 123.11C176.18 123.06 176.21 123.09 176.23 123.14C176.43 123.85 176.38 124.66 175.72 124.97C175.12 125.25 174.5 124.75 174.15 124.08C174.08 123.95 174.13 123.72 174.27 123.77Z" fill="#263238"/>
<path d="M168.35 137.04C168.68 137.27 169.03 137.6 169.47 137.56C169.89 137.52 170.34 137.26 170.69 137.05C170.73 137.03 170.77 137.06 170.75 137.1C170.52 137.61 169.92 138 169.35 138C168.8 138 168.45 137.58 168.24 137.11C168.21 137.05 168.3 137.01 168.35 137.04Z" fill="#263238"/>
<path d="M172.27 131.7C172.27 131.7 172.92 133.39 173.11 134.21C173.13 134.29 172.94 134.37 172.66 134.45C172.65 134.46 172.64 134.46 172.63 134.46C171.22 135.02 169.64 134.86 168.48 133.87C168.4 133.8 168.49 133.69 168.58 133.73C169.85 134.28 171.1 134.21 172.4 133.93C172.41 133.69 171.2 131.07 171.33 131.03C171.77 130.89 172.73 130.99 173.3 131.02C172.06 127.46 170.25 124.13 169.07 120.56C169.03 120.43 169.21 120.35 169.27 120.46C171.41 123.82 172.93 127.89 174.31 131.53C174.48 131.99 172.64 131.76 172.27 131.7Z" fill="#263238"/>
<path d="M172.51 134.17C172.51 134.17 172.03 135.47 171.06 136.17C170.7 136.43 170.29 136.61 169.8 136.62C168.8 136.65 168.53 135.81 168.49 135.03C168.45 134.39 168.58 133.8 168.58 133.8C168.58 133.8 170.3 134.67 172.51 134.17Z" fill="#263238"/>
<path d="M171.06 136.16C170.7 136.42 170.29 136.6 169.8 136.61C168.8 136.64 168.53 135.8 168.49 135.02C169.51 134.84 170.69 135.23 171.06 136.16Z" fill="#FF9ABB"/>
<path d="M163.27 127.64C163.56 127.45 163.89 127.34 164.23 127.25C164.57 127.17 164.93 127.14 165.29 127.17C165.65 127.21 166.03 127.3 166.38 127.49C166.73 127.68 167.05 127.97 167.29 128.3L167.73 128.91L167.02 128.93C166.54 128.95 166.02 129.01 165.54 129.14C165.06 129.28 164.59 129.47 164.2 129.88C164.36 129.31 164.82 128.85 165.32 128.59C165.84 128.32 166.38 128.17 166.98 128.14L166.71 128.77C166.34 128.3 165.83 127.98 165.22 127.83C164.61 127.68 163.95 127.62 163.27 127.64Z" fill="#263238"/>
<path d="M165.76 130.33C166.25 130.06 166.74 129.9 167.16 129.5C167.26 129.41 167.62 129.02 167.58 128.93C167.5 128.68 167.33 128.41 167.17 128.16C167.38 128.37 167.6 128.57 167.73 128.88C167.74 129.16 167.59 129.47 167.31 129.71C166.87 130.09 166.25 130.28 165.76 130.33Z" fill="#263238"/>
<path d="M149.02 136.22C152.6 135.96 151.89 127.77 151.89 127.77C151.89 127.77 166.48 123.43 165.3 111.04C165.3 111.04 168.96 115.52 175.05 119C175.05 119 173.52 105.23 162.41 106.18C162.41 106.18 149.16 103.56 143.9 115.42C138.64 127.28 146.61 136.4 149.02 136.22Z" fill="#263238"/>
<path d="M165.05 109.95C165.56 111.78 165.6 113.74 165.3 115.63C165 117.53 164.34 119.4 163.28 121.03C163.05 121.46 162.71 121.81 162.44 122.21L162 122.79C161.84 122.97 161.67 123.14 161.5 123.31C161.16 123.65 160.83 124 160.47 124.33C160.09 124.63 159.71 124.92 159.33 125.21C159.14 125.35 158.95 125.5 158.75 125.64L158.13 126L156.9 126.72C156.04 127.12 155.15 127.48 154.27 127.82C155.07 127.3 155.9 126.87 156.68 126.36L157.82 125.55L158.39 125.15C158.57 125 158.74 124.84 158.91 124.69C159.25 124.38 159.6 124.07 159.95 123.77C160.28 123.45 160.57 123.09 160.89 122.76L161.36 122.25L161.77 121.7C162.03 121.32 162.34 120.98 162.55 120.57C163.56 119.04 164.21 117.29 164.65 115.51C164.87 114.61 164.99 113.69 165.06 112.76C165.14 111.82 165.13 110.89 165.05 109.95Z" fill="#263238"/>
<path d="M150.14 134.61C150.14 134.61 145.2 130.05 143.04 131.92C140.89 133.79 145.42 140.97 148.52 141.41C151.62 141.86 152.09 139 152.09 139L150.14 134.61Z" fill="#EB9481"/>
<path d="M144.4 133.94C144.35 133.95 144.36 134.01 144.4 134.02C146.59 134.4 148.06 136.03 149.22 137.8C148.46 137.19 147.55 136.96 146.71 137.88C146.67 137.93 146.73 138 146.79 137.98C147.58 137.63 148.2 137.64 148.9 138.18C149.4 138.56 149.79 139.09 150.19 139.57C150.32 139.73 150.63 139.56 150.51 139.37C150.5 139.36 150.49 139.34 150.48 139.33C149.99 136.75 147.21 133.6 144.4 133.94Z" fill="#263238"/>
<path d="M172.46 194.92L181.86 226.88L109.79 227.39C109.79 227.39 112.1 216.16 120.07 202.84C120.07 202.84 132.17 161.32 139.43 153.47C147.15 145.13 155.95 146.93 163 155.99C165.5 159.21 177.39 173.61 176.89 182.57C176.43 190.46 172.46 194.92 172.46 194.92Z" fill="#083E78"/>
<path d="M213.28 132.73L173.88 131.52L173.7 122.56L213.02 119.75L213.28 132.73Z" fill="#37474F"/>
<path d="M235.4 135.92L195.98 133.58L195.7 119.61L234.99 115.67L235.4 135.92Z" fill="#455A64"/>
<path d="M254.24 140.25L224.27 136.26L223.85 115.79L253.64 110.58L254.24 140.25Z" fill="#37474F"/>
<path d="M255.97 125.38C256.12 132.86 255.33 138.94 254.21 138.97C253.09 138.99 252.06 132.95 251.91 125.46C251.76 117.98 252.55 111.9 253.67 111.87C254.79 111.85 255.82 117.89 255.97 125.38Z" fill="#083E78"/>
<path d="M148.45 162.28C160.67 176.23 186.67 194.64 194.44 192.41C203.06 189.94 220.7 157.84 222.78 150.24C223.66 147 196.94 138.35 195.92 141.8C195.03 144.8 187.3 162.35 184.7 163C183.63 163.27 174.04 159.51 156.66 154.79C143.33 151.17 144.83 158.15 148.45 162.28Z" fill="#EB9481"/>
<path d="M193.75 149.36C193.75 149.36 194.22 146.11 195 137.86C195.61 131.41 201.53 116.69 218.91 111.25C225.57 109.17 229.93 112.93 223.4 116.32C218.8 118.71 215.41 119.97 214.12 121.17C214.12 121.17 221.91 122.69 223.8 126.88C224.65 128.75 226.83 133.92 227.96 138.18C227.96 138.18 227.1 138.68 225.92 139.15C225.92 139.15 228.13 144.5 223.61 149.19L220.42 156.1L193.75 149.36Z" fill="#EB9481"/>
<path d="M197.271 132.5C199.681 130.11 204.861 125.11 210.521 122.51C216.811 119.61 229.7 115.73 231.79 120.39C233.32 123.81 228.531 125.73 228.531 125.73C228.531 125.73 234.201 125.25 234.911 128.64C235.561 131.73 231.76 132.99 231.76 132.99C231.76 132.99 235.251 133.29 235.301 136.39C235.361 140.11 228.04 138.88 224.84 142.7C224.11 143.55 197.271 132.5 197.271 132.5Z" fill="#EB9481"/>
<path d="M212.47 129.66C215.1 127.78 222.18 125.04 228.41 125.64C228.55 125.65 228.62 125.77 228.49 125.78C221.48 126.58 215.14 128.67 212.5 129.72C212.47 129.73 212.44 129.68 212.47 129.66Z" fill="#263238"/>
<path d="M215.58 135.92C218.02 134.53 225.43 132.03 231.73 132.86C231.87 132.88 231.93 133 231.8 133.01C224.44 133.54 218.3 135.1 215.6 135.99C215.57 135.99 215.55 135.94 215.58 135.92Z" fill="#263238"/>
<path d="M221.27 160.55L192.85 147.08C192.85 147.08 186.09 162.13 184.94 162.34C183.43 162.62 163.53 155.39 154.26 153.41C144.21 151.26 140.41 157.92 150.13 166.79C154 170.32 178.89 194.04 194.52 193.01C202.91 192.46 221.27 160.55 221.27 160.55Z" fill="#083E78"/>
<path d="M192.91 154.73C194.51 155.75 196.28 156.48 197.97 157.3C199.73 158.15 201.51 158.92 203.29 159.71C205.07 160.5 212.27 163.35 214.07 164.06C214.15 164.09 214.2 163.94 214.12 163.91C212.36 163.06 205.39 159.69 203.65 158.93C201.9 158.17 200.16 157.39 198.39 156.69C196.6 155.98 194.8 155.14 192.96 154.65C192.91 154.64 192.87 154.71 192.91 154.73Z" fill="#263238"/>
<path d="M152.75 169.19C161.48 176.58 170.61 183.68 180.73 189.07C184.91 191.11 189.44 193.3 194.15 192.7C196.92 192.18 199.15 190.22 201.19 188.34C209.31 180.23 215.18 170.21 221.24 160.52L221.26 160.58L219 159.46L221.3 160.5L221.34 160.52C219.41 163.83 217.54 167.2 215.5 170.46C211.42 176.95 207.17 183.41 201.68 188.83C198.95 191.51 195.39 194.14 191.32 193.49C178.4 191.52 162.45 177.83 152.75 169.19Z" fill="#263238"/>
<path d="M153.25 171.05C154.64 171.77 156.02 172.46 157.36 173.24C155.78 173.1 154.22 172.31 153.25 171.05Z" fill="#263238"/>
<path d="M159.13 154.75C167.24 157.07 176.84 160.22 184.98 162.11C187.97 157.62 190.3 152.04 192.83 147.07L192.84 147.05L192.86 147.06L193.69 147.48L192.84 147.1L192.87 147.09C190.62 152.15 188.54 157.29 185.63 162.02C185.4 162.27 185.33 162.55 184.92 162.57C176.15 160.59 167.62 157.64 159.13 154.75Z" fill="#263238"/>
<path d="M160.49 154.71C161.49 154.84 162.39 155.41 163.11 156.09C162.19 155.68 161.38 155.16 160.49 154.71Z" fill="#263238"/>
<path d="M49.2097 73.1501C51.1097 91.3201 67.3897 104.52 85.5597 102.62C92.8997 101.85 99.4297 98.7301 104.49 94.0801L121.04 96.5101L112.76 82.2001C114.77 77.3101 115.62 71.8701 115.03 66.2701C113.13 48.1001 96.8497 34.9001 78.6797 36.8001C60.5097 38.7001 47.3097 54.9801 49.2097 73.1501Z" fill="white"/>
<path d="M59.1099 45.8301C62.6999 42.3201 67.0899 39.6201 71.8699 38.0101C76.6599 36.4201 81.8199 35.9601 86.8299 36.6301C91.8399 37.3101 96.7299 39.0901 100.95 41.9301C105.17 44.7601 108.75 48.5601 111.31 52.9601C116.45 61.7601 117.36 73.0001 113.35 82.4501L113.31 81.8801L121.54 96.2201L122.15 97.2801L120.95 97.1001L104.41 94.5601L104.8 94.4401C100.22 98.5901 94.4899 101.43 88.4299 102.52C86.9199 102.8 85.3899 102.96 83.8499 103C82.3199 103.13 80.7799 103 79.2499 102.91C76.2099 102.54 73.1699 101.98 70.3399 100.79C67.4999 99.6701 64.7799 98.2101 62.3599 96.3501C61.0899 95.4901 60.0199 94.4001 58.8699 93.3901C57.8599 92.2501 56.7399 91.2001 55.8699 89.9401C52.0899 85.1301 49.8799 79.2101 49.1899 73.1701C48.1399 63.1901 51.8099 52.7801 59.1099 45.8301ZM55.9899 89.8501C56.8599 91.1001 57.9799 92.1401 58.9999 93.2701C60.1499 94.2601 61.2299 95.3401 62.4899 96.1901C64.8999 98.0401 67.6399 99.4301 70.4699 100.49C73.2899 101.62 76.3099 102.13 79.3099 102.44C80.8199 102.49 82.3299 102.61 83.8399 102.45C85.3499 102.39 86.8499 102.2 88.3299 101.9C94.2499 100.72 99.7899 97.8501 104.17 93.7401L104.33 93.5901L104.56 93.6201L121.13 95.9401L120.54 96.8101L112.21 82.5301L112.05 82.2601L112.17 81.9601C114.01 77.4101 114.81 72.4501 114.5 67.5501C114.11 62.6601 112.81 57.8001 110.3 53.5501C107.84 49.2901 104.44 45.5901 100.4 42.7501C96.3499 39.9201 91.6199 38.1001 86.7399 37.3501C81.8499 36.6101 76.7699 36.9701 72.0299 38.4501C67.2899 39.9601 62.8999 42.5501 59.2699 45.9801C51.9599 52.8301 48.2199 63.1801 49.2199 73.1501C49.9399 79.1901 52.1899 85.0801 55.9899 89.8501Z" fill="#263238"/>
<path d="M82.4899 103.29C81.6699 103.29 80.8499 103.24 80.0399 103.19L79.2499 103.14C76.6999 102.83 73.3899 102.32 70.2599 101C67.2399 99.8101 64.5399 98.3101 62.2199 96.5201C61.3099 95.9101 60.4799 95.1501 59.6799 94.4201C59.3599 94.1301 59.0399 93.8401 58.7199 93.5501C58.3999 93.1901 58.0999 92.8701 57.7899 92.5401C57.0599 91.7601 56.2999 90.9501 55.6799 90.0501C52.0199 85.3901 49.6899 79.5401 48.9599 73.1701C47.8699 63.0701 51.6899 52.5301 58.9399 45.6401C62.5799 42.0901 67.0199 39.3701 71.7899 37.7601C76.5599 36.1701 81.7699 35.6901 86.8599 36.3701C92.0199 37.0701 96.9399 38.9101 101.09 41.7101C105.35 44.5701 108.96 48.4101 111.53 52.8301C116.7 61.6701 117.53 72.8501 113.75 82.1401L122.63 97.6001L104.72 94.8501C100.12 98.9401 94.5099 101.67 88.4899 102.76C86.9399 103.04 85.3899 103.21 83.8699 103.24C83.4099 103.28 82.9499 103.29 82.4899 103.29ZM80.8399 102.74C81.8399 102.79 82.8499 102.82 83.8399 102.74C85.3399 102.71 86.8699 102.55 88.3999 102.27C94.1999 101.22 99.5999 98.6301 104.07 94.7501L103.51 94.6601C99.1999 98.4401 93.9899 101.01 88.3699 102.13C86.8499 102.44 85.3299 102.62 83.8399 102.68C82.8499 102.79 81.8299 102.78 80.8399 102.74ZM49.4599 73.1301C50.2199 79.4001 52.5499 85.1301 56.1799 89.6901L56.1899 89.7001C56.7999 90.5701 57.5399 91.3501 58.2599 92.1101C58.5699 92.4401 58.8799 92.7601 59.1799 93.0901C59.4899 93.3501 59.8099 93.6401 60.1399 93.9401C60.9299 94.6501 61.7399 95.3801 62.6299 95.9701C64.8399 97.6701 67.5099 99.1001 70.5599 100.24C73.6199 101.47 76.8499 101.92 79.3299 102.17L80.1099 102.2C81.3199 102.25 82.5799 102.3 83.7999 102.18C85.2799 102.12 86.7699 101.94 88.2699 101.64C94.1599 100.47 99.5999 97.6701 103.99 93.5401L104.24 93.3101L119.45 95.4401L111.77 82.2701L111.94 81.8601C113.76 77.3601 114.56 72.4101 114.25 67.5601C113.83 62.3101 112.43 57.6401 110.08 53.6701C107.65 49.4701 104.25 45.7601 100.25 42.9501C96.3199 40.2101 91.6399 38.3501 86.6899 37.6001C81.7799 36.8601 76.7399 37.2401 72.0899 38.6901C67.4099 40.1801 63.0299 42.7601 59.4299 46.1601C52.2799 52.8601 48.4599 63.2001 49.4599 73.1301ZM120.82 96.8201L121.67 96.9501L121.24 96.2001L120.82 96.8201ZM105.19 94.4201L120.19 96.7201L119.77 95.9901L105.64 94.0101L105.19 94.4201ZM120.4 96.0801L120.55 96.3301L120.69 96.1201L120.4 96.0801ZM120.08 95.5301L120.93 95.6501L113.5 82.7201L113.17 83.5101L112.99 80.8201L113.43 81.5901C116.99 72.5201 116.12 61.6801 111.1 53.0901C108.57 48.7401 105.01 44.9501 100.81 42.1401C96.7199 39.3901 91.8799 37.5701 86.7999 36.8801C82.4099 36.3001 77.9399 36.5901 73.7399 37.7201C77.9499 36.6701 82.4199 36.4601 86.7699 37.1101C91.7899 37.8801 96.5499 39.7601 100.54 42.5501C104.6 45.4001 108.05 49.1601 110.51 53.4301C112.89 57.4601 114.31 62.2101 114.74 67.5301C115.05 72.4601 114.24 77.4901 112.39 82.0601L112.32 82.2401L120.08 95.5301ZM104.41 93.8401L104.33 93.9101C104.11 94.1201 103.89 94.3201 103.66 94.5201L105.4 93.9801L104.41 93.8401Z" fill="#263238"/>
<path d="M78.4698 88.5801L64.3398 74.2801L69.0898 69.5901L77.3398 77.9401L94.4898 51.0601L100.12 54.6401L78.4698 88.5801Z" fill="#083E78"/>
</g>
<defs>
<clipPath id="clip0_28_98">
<rect width="750" height="500" fill="white"/>
</clipPath>
</defs>
</svg>
