<svg width="3710" height="3710" viewBox="0 0 3710 3710" fill="none" xmlns="http://www.w3.org/2000/svg">
<path d="M2885.79 2861.15C2828.56 2921.4 2774.41 2960.25 2731.63 2990.95C2228.74 3351.78 1633.68 3246.6 1507.22 3220.91C1320.47 3182.98 959.48 3109.66 698.5 2802.75C303.65 2338.41 365.13 1606.87 671.41 1123.96C727.43 1035.63 1023.36 545.37 1624.82 466.75C1988.82 419.17 2413.13 515.13 2720.4 772.57C3365.38 1312.94 3319.47 2404.59 2885.79 2861.15Z" fill="url(#paint0_linear_28_21)"/>
<path d="M3079.54 760.03C3074.05 745.06 3052.09 747.41 3049.96 763.21C3029.33 915.97 2962.67 1314.83 2806.12 1543.48C2551.22 1915.77 2425.94 2479.84 2657.76 2730.41C2657.76 2730.4 3677.76 2391 3079.54 760.03Z" fill="#BDD0FB"/>
<path opacity="0.43" d="M3079.93 973.81C3080.23 978.67 3080.09 982.7 3080.14 987.04L3079.99 999.84L3079.4 1025.41C3078.89 1042.45 3078.12 1059.48 3077.35 1076.51C3075.68 1110.56 3073.59 1144.58 3071.19 1178.59C3066.26 1246.59 3059.49 1314.45 3051.7 1382.2C3044 1449.96 3034.41 1517.51 3023.39 1584.82C3012.31 1652.12 3000.28 1719.29 2986.04 1786.03C2957.83 1919.54 2922.34 2051.64 2877.65 2180.7C2854.63 2244.98 2829.92 2308.7 2801.57 2370.84C2772.78 2432.76 2741.34 2493.48 2705.62 2551.65C2704.84 2552.91 2703.19 2553.31 2701.92 2552.53C2700.69 2551.77 2700.28 2550.18 2700.98 2548.93L2701 2548.9C2734.32 2489.61 2764.39 2428.64 2791.4 2366.33C2818.59 2304.08 2842.14 2240.31 2864 2176.02C2885.83 2111.7 2905.05 2046.51 2922.8 1980.93C2940.52 1915.33 2955.52 1849.03 2970.15 1782.66C2998.84 1649.76 3020.42 1515.39 3038.29 1380.55C3047.08 1313.11 3054.52 1245.48 3060.75 1177.73C3063.92 1143.86 3066.78 1109.96 3069.22 1076.03L3072.48 1025.11L3073.85 999.65L3074.39 986.92C3074.5 982.75 3074.69 978.27 3074.64 974.61L3074.63 974.01C3074.61 972.54 3075.78 971.33 3077.25 971.31C3078.66 971.29 3079.84 972.41 3079.93 973.81Z" fill="white"/>
<path d="M2413.71 476.07C2404.59 463.84 2385.1 471.98 2387.45 487.05C2410.2 632.77 2457.89 1016.73 2376.7 1269.12C2244.51 1680.06 2283.49 2231.53 2564.44 2398.07C2564.44 2398.07 3407.24 1808.56 2413.71 476.07Z" fill="#91B3FA"/>
<path opacity="0.43" d="M2472.43 672C2474.04 676.38 2475.01 680.11 2476.23 684.08L2479.58 695.86L2486.02 719.47C2490.21 735.24 2494.15 751.06 2498.09 766.89C2505.86 798.57 2513.23 830.34 2520.31 862.18C2534.35 925.89 2546.66 989.96 2558 1054.21C2569.44 1118.45 2579.07 1183.01 2587.33 1247.75C2595.54 1312.49 2602.83 1377.38 2607.98 1442.46C2618.54 1572.59 2622.01 1703.43 2616.23 1833.98C2612.65 1899.21 2607.36 1964.39 2598.3 2029.11C2588.77 2093.75 2576.5 2158.01 2559.58 2221.09C2559.2 2222.49 2557.77 2223.32 2556.37 2222.94C2555.01 2222.58 2554.19 2221.2 2554.49 2219.84L2554.5 2219.8C2568.86 2156.34 2579.79 2092.22 2587.55 2027.71C2595.5 1963.21 2599.68 1898.3 2602.18 1833.39C2604.64 1768.45 2604.49 1703.43 2602.87 1638.45C2601.23 1573.46 2596.89 1508.57 2592.2 1443.72C2582.26 1314.03 2565.39 1184.91 2545.02 1056.39C2534.69 992.14 2523.07 928.09 2510.31 864.27C2503.98 832.35 2497.37 800.48 2490.35 768.69L2479.46 721.11L2473.77 697.38L2470.8 685.56C2469.76 681.71 2468.71 677.54 2467.67 674.21L2467.49 673.65C2467.06 672.28 2467.82 670.83 2469.19 670.4C2470.55 670 2471.96 670.71 2472.43 672Z" fill="white"/>
<path d="M1569.26 2950.82C2185 2950.82 2684.16 2451.66 2684.16 1835.92C2684.16 1220.18 2185 721.02 1569.26 721.02C953.518 721.02 454.36 1220.18 454.36 1835.92C454.36 2451.66 953.518 2950.82 1569.26 2950.82Z" fill="url(#paint1_linear_28_21)"/>
<path d="M2432.26 2624.26C2867.66 2188.87 2867.66 1482.96 2432.26 1047.57C1996.87 612.181 1290.96 612.181 855.573 1047.57C420.181 1482.96 420.181 2188.87 855.573 2624.26C1290.96 3059.65 1996.87 3059.65 2432.26 2624.26Z" fill="white"/>
<path d="M1643.94 2787.44C2169.45 2787.44 2595.46 2361.43 2595.46 1835.92C2595.46 1310.41 2169.45 884.4 1643.94 884.4C1118.43 884.4 692.42 1310.41 692.42 1835.92C692.42 2361.43 1118.43 2787.44 1643.94 2787.44Z" fill="url(#paint2_linear_28_21)"/>
<path d="M1643.94 2835.1C1092.99 2835.1 644.76 2386.87 644.76 1835.92C644.76 1284.97 1092.99 836.74 1643.94 836.74C2194.89 836.74 2643.12 1284.97 2643.12 1835.92C2643.12 2386.87 2194.89 2835.1 1643.94 2835.1ZM1643.94 884.39C1119.27 884.39 692.42 1311.24 692.42 1835.91C692.42 2360.59 1119.27 2787.43 1643.94 2787.43C2168.61 2787.43 2595.46 2360.58 2595.46 1835.91C2595.46 1311.24 2168.61 884.39 1643.94 884.39Z" fill="white"/>
<path d="M1643.94 2416.01C1964.31 2416.01 2224.03 2156.29 2224.03 1835.92C2224.03 1515.55 1964.31 1255.83 1643.94 1255.83C1323.56 1255.83 1063.85 1515.55 1063.85 1835.92C1063.85 2156.29 1323.56 2416.01 1643.94 2416.01Z" fill="url(#paint3_linear_28_21)"/>
<path d="M1643.94 2463.67C1297.8 2463.67 1016.19 2182.06 1016.19 1835.91C1016.19 1489.76 1297.8 1208.16 1643.94 1208.16C1990.08 1208.16 2271.69 1489.76 2271.69 1835.91C2271.69 2182.06 1990.08 2463.67 1643.94 2463.67ZM1643.94 1303.48C1350.35 1303.48 1111.5 1542.33 1111.5 1835.91C1111.5 2129.49 1350.35 2368.35 1643.94 2368.35C1937.53 2368.35 2176.38 2129.49 2176.38 1835.91C2176.38 1542.33 1937.53 1303.48 1643.94 1303.48Z" fill="white"/>
<path d="M1643.94 2060.67C1768.07 2060.67 1868.69 1960.05 1868.69 1835.92C1868.69 1711.79 1768.07 1611.17 1643.94 1611.17C1519.81 1611.17 1419.19 1711.79 1419.19 1835.92C1419.19 1960.05 1519.81 2060.67 1643.94 2060.67Z" fill="url(#paint4_linear_28_21)"/>
<path d="M1643.94 2108.32C1493.74 2108.32 1371.54 1986.12 1371.54 1835.91C1371.54 1685.7 1493.74 1563.5 1643.94 1563.5C1794.14 1563.5 1916.35 1685.7 1916.35 1835.91C1916.35 1986.12 1794.14 2108.32 1643.94 2108.32ZM1643.94 1658.83C1546.29 1658.83 1466.85 1738.27 1466.85 1835.92C1466.85 1933.57 1546.29 2013.01 1643.94 2013.01C1741.59 2013.01 1821.03 1933.57 1821.03 1835.92C1821.03 1738.27 1741.59 1658.83 1643.94 1658.83Z" fill="white"/>
<path d="M3196.65 2171.03L3244.26 2267.11L3042.38 2220.63C2976.23 2205.4 2920.41 2161.31 2890.27 2100.49L3196.65 2171.03Z" fill="url(#paint5_linear_28_21)"/>
<path d="M3203.3 2142.16L3288.13 2076.57L3086.25 2030.09C3020.1 2014.86 2950.62 2030.1 2896.92 2071.62L3203.3 2142.16Z" fill="url(#paint6_linear_28_21)"/>
<path d="M3207.86 2138.18L3199.89 2172.78L1889.57 1871.1L1897.54 1836.5L3207.86 2138.18Z" fill="url(#paint7_linear_28_21)"/>
<path d="M1958.33 1819.44C1978.18 1824.01 1956.63 1917.6 1936.78 1913.03L1635.33 1804.54C1624.19 1800.53 1628.02 1783.92 1639.79 1785.18L1958.33 1819.44Z" fill="url(#paint8_linear_28_21)"/>
<path d="M2278.17 3169.51C2278.17 3169.51 2294.26 3192.7 2295.07 3225.28C2295.26 3232.95 2289.05 3239.29 2281.38 3239.56L2157.52 3243.88C2151.72 3244.08 2149.11 3236.71 2153.74 3233.21C2176.6 3215.93 2221.6 3183.58 2254.5 3170.33L2278.17 3169.51Z" fill="url(#paint9_linear_28_21)"/>
<path d="M2281.25 3129.96L2278.08 3177.58C2277.73 3182.91 2273.14 3187.09 2267.82 3186.64C2264.59 3186.37 2260.7 3185.54 2256.41 3183.61C2252.33 3181.78 2249.81 3177.57 2249.98 3173.1L2252.14 3115.65L2281.25 3129.96Z" fill="url(#paint10_linear_28_21)"/>
<path d="M2968.23 2961.76C2968.23 2961.76 2994.06 2950.36 3026.2 2955.75C3033.77 2957.02 3038.81 2964.32 3037.62 2971.9L3018.36 3094.33C3017.46 3100.06 3009.72 3101.23 3007.17 3096.02C2994.54 3070.29 2971.32 3019.98 2964.55 2985.16L2968.23 2961.76Z" fill="url(#paint11_linear_28_21)"/>
<path d="M2929.99 2951.23L2976.14 2963.38C2981.3 2964.74 2984.54 2970.04 2983.09 2975.18C2982.21 2978.3 2980.66 2981.96 2977.95 2985.81C2975.38 2989.47 2970.76 2991.14 2966.41 2990.13L2910.41 2977.11L2929.99 2951.23Z" fill="url(#paint12_linear_28_21)"/>
<path d="M2297.97 1987.88C2297.97 1987.88 2293.82 1978.29 2294.49 1972.61C2295.16 1966.94 2295.32 1949.22 2284.69 1941.74C2284.69 1941.74 2278.93 1942.02 2278.82 1948.48C2272.05 1941.21 2271.71 1934.94 2264.71 1939.4C2257.72 1943.85 2231.4 1959.82 2244.54 1970.35C2257.68 1980.88 2278.34 2000.92 2278.34 2000.92L2297.97 1987.88Z" fill="url(#paint13_linear_28_21)"/>
<path d="M2526.03 2753.92C2526.03 2753.92 2549.47 2941.01 2616.6 2948.15C2683.72 2955.29 2940.8 2992.42 2940.8 2992.42L2947.94 2953.86C2947.94 2953.86 2799.41 2863.88 2710.86 2865.31C2666.59 2799.61 2677.39 2618.09 2677.39 2618.09L2526.03 2753.92Z" fill="#083E78"/>
<path d="M2802.17 2100.73C2794.26 2309.32 2684.85 2327.74 2684.85 2327.74V2594.52H2530.57C2530.57 2594.52 2455.76 2412.34 2457.7 2351.45C2346.43 2304.4 2290.11 2035.37 2278.35 2000.92C2283.83 1996.75 2286.78 1996.91 2297.97 1987.88C2449.63 2229.25 2486.63 2266.35 2486.63 2266.35H2572.32C2736.98 2251.56 2777.49 2095.04 2777.49 2095.04L2802.17 2100.73Z" fill="url(#paint14_linear_28_21)"/>
<path d="M2680.03 2593.96C2680.03 2593.96 2692.29 2724.68 2434.8 2826.56C2371.96 2943.67 2289.54 3161.99 2289.54 3161.99H2235.27C2235.27 3161.99 2272.4 2832.28 2338.1 2766.58C2403.8 2700.88 2475.47 2626.95 2530.56 2594.58C2658.02 2581.25 2680.03 2593.96 2680.03 2593.96Z" fill="#083E78"/>
<path d="M2570.25 2169.12L2598.65 2269.14C2598.65 2269.14 2550.12 2295.22 2514.24 2288.17L2504.38 2200L2570.25 2169.12Z" fill="url(#paint15_linear_28_21)"/>
<path d="M2511.42 2096.49C2510.38 2097.66 2471.75 2193.72 2471.75 2193.72L2527.07 2214.61L2577.21 2129.01C2577.2 2129 2528.84 2076.9 2511.42 2096.49Z" fill="url(#paint16_linear_28_21)"/>
<path d="M2554.21 2140.27L2531.35 2187.4C2531.06 2188 2530.69 2188.55 2530.25 2189.06C2527.52 2192.14 2517.36 2202.03 2507.87 2191.02C2499.26 2181.02 2491.25 2172.03 2483.19 2169.65C2479.57 2168.58 2475.74 2170.43 2474.33 2173.93C2470.82 2182.66 2463.28 2202.47 2459.36 2220.69C2458.56 2224.39 2460.76 2228.06 2464.38 2229.17C2475.26 2232.54 2498.42 2238.99 2518.26 2239.83C2520.95 2239.94 2523.48 2238.61 2524.86 2236.3C2531.62 2225.06 2552.3 2190.96 2559.53 2182.35C2566.32 2174.27 2580.52 2176.12 2586.42 2177.32C2588.36 2177.71 2590.35 2177.3 2591.97 2176.17C2597.7 2172.18 2608.96 2161.62 2596.56 2146.06C2593.97 2142.8 2594.58 2138.09 2597.91 2135.6C2604.55 2130.63 2612.09 2121.35 2603.49 2107.81C2594.75 2094.05 2581.11 2094.54 2572.55 2096.62C2569.09 2097.46 2565.62 2095.64 2564.16 2092.4C2563.33 2090.55 2561.68 2089.04 2558.54 2088.96C2554.31 2088.85 2551.18 2084.95 2551.73 2080.75C2552.79 2072.69 2551.04 2062.15 2537.52 2056.2C2513.52 2045.65 2495.29 2067.94 2491.73 2085.7C2488.17 2103.46 2514.85 2113.42 2531.12 2114.03C2543.5 2114.49 2551.24 2127.68 2554.24 2133.98C2555.2 2135.97 2555.18 2138.28 2554.21 2140.27Z" fill="#083E78"/>
<path d="M2551.04 2199.42C2551.04 2199.42 2558.57 2168.74 2571.69 2168.68C2584.81 2168.62 2596.22 2180.68 2581.37 2196.7C2562.91 2216.63 2551.04 2199.42 2551.04 2199.42Z" fill="url(#paint17_linear_28_21)"/>
<path d="M2807.34 2045.7C2807.34 2045.7 2774.02 2030.94 2778.3 2055.7C2782.59 2080.46 2773.64 2098.55 2792.63 2100.45C2811.62 2102.35 2813.79 2062.81 2807.34 2045.7Z" fill="url(#paint18_linear_28_21)"/>
<g opacity="0.3">
<path d="M834.39 953.73C829.03 954 824.21 950.18 823.37 944.76C821.51 932.9 820.15 920.79 819.3 908.76C818.89 902.91 823.3 897.83 829.15 897.42C829.22 897.42 829.29 897.41 829.36 897.41C835.13 897.12 840.09 901.49 840.5 907.28C841.3 918.71 842.6 930.22 844.36 941.48C845.27 947.28 841.3 952.71 835.51 953.62C835.13 953.67 834.76 953.71 834.39 953.73ZM830.36 861.26C829.95 861.28 829.52 861.28 829.1 861.25C823.25 860.86 818.82 855.79 819.21 849.94C820.02 837.91 821.34 825.8 823.16 813.95C824.05 808.15 829.44 804.18 835.27 805.05C841.07 805.94 845.05 811.36 844.16 817.16C842.44 828.43 841.18 839.93 840.41 851.36C840.05 856.79 835.66 860.99 830.36 861.26ZM846.79 770.2C845.61 770.26 844.4 770.12 843.2 769.76C837.58 768.07 834.39 762.15 836.07 756.53C839.52 745.01 843.52 733.49 847.95 722.31C850.12 716.86 856.29 714.19 861.74 716.35C867.19 718.51 869.86 724.69 867.7 730.14C863.49 740.76 859.69 751.7 856.41 762.64C855.11 767.06 851.15 769.98 846.79 770.2ZM883.19 685.08C881.24 685.18 879.24 684.74 877.41 683.7C872.31 680.8 870.52 674.31 873.42 669.21C879.37 658.75 885.84 648.41 892.66 638.5C895.99 633.67 902.6 632.45 907.44 635.77C912.27 639.09 913.5 645.71 910.17 650.54C903.7 659.95 897.55 669.77 891.9 679.71C890.03 683 886.69 684.91 883.19 685.08ZM937.64 610.22C934.9 610.36 932.11 609.45 929.93 607.45C925.6 603.49 925.3 596.77 929.26 592.44C937.36 583.58 945.96 574.94 954.81 566.77C959.12 562.79 965.84 563.05 969.82 567.36C973.8 571.67 973.53 578.39 969.22 582.38C960.81 590.15 952.64 598.36 944.94 606.78C942.98 608.93 940.34 610.09 937.64 610.22ZM1007.3 549.28C1003.75 549.46 1000.2 547.86 998.02 544.73C994.67 539.91 995.86 533.29 1000.68 529.94C1010.56 523.08 1020.85 516.55 1031.28 510.55C1036.37 507.62 1042.86 509.37 1045.79 514.46C1048.72 519.54 1046.97 526.04 1041.88 528.97C1031.97 534.67 1022.19 540.87 1012.81 547.39C1011.12 548.57 1009.21 549.18 1007.3 549.28ZM1394.83 504.2C1393.36 504.27 1391.86 504.04 1390.4 503.47C1379.78 499.28 1368.84 495.5 1357.87 492.24C1352.25 490.57 1349.04 484.65 1350.72 479.03C1352.39 473.41 1358.31 470.2 1363.93 471.88C1375.48 475.32 1387.01 479.3 1398.19 483.71C1403.65 485.86 1406.33 492.03 1404.18 497.49C1402.6 501.49 1398.86 504 1394.83 504.2ZM1088.68 505.31C1084.28 505.53 1080.02 502.98 1078.28 498.67C1076.09 493.23 1078.72 487.04 1084.16 484.84C1095.32 480.34 1106.8 476.28 1118.3 472.76C1123.92 471.07 1129.85 474.2 1131.57 479.81C1133.29 485.42 1130.13 491.36 1124.52 493.08C1113.6 496.42 1102.69 500.28 1092.1 504.55C1090.98 505 1089.82 505.25 1088.68 505.31ZM1305.45 480.17C1304.75 480.21 1304.04 480.18 1303.31 480.07C1292.02 478.36 1280.5 477.13 1269.08 476.38C1263.22 476 1258.79 470.94 1259.17 465.09C1259.55 459.24 1264.6 454.77 1270.46 455.18C1282.48 455.96 1294.6 457.27 1306.48 459.06C1312.28 459.94 1316.28 465.35 1315.4 471.15C1314.64 476.23 1310.39 479.92 1305.45 480.17ZM1177.83 480.63C1172.48 480.9 1167.67 477.1 1166.81 471.68C1165.89 465.88 1169.84 460.44 1175.64 459.52C1187.51 457.64 1199.61 456.25 1211.62 455.38C1211.69 455.37 1211.77 455.37 1211.85 455.36C1217.61 455.07 1222.57 459.43 1222.98 465.21C1223.4 471.06 1219 476.15 1213.15 476.57C1201.74 477.39 1190.24 478.72 1178.97 480.51C1178.59 480.57 1178.21 480.61 1177.83 480.63Z" fill="#91B3FA"/>
<path d="M1461.47 537.74C1459.38 537.85 1457.24 537.34 1455.33 536.15C1450.68 533.25 1445.89 530.41 1441.1 527.69C1436 524.8 1434.21 518.31 1437.1 513.21C1439.99 508.11 1446.48 506.31 1451.58 509.21C1456.62 512.07 1461.66 515.06 1466.55 518.11C1471.53 521.21 1473.06 527.76 1469.96 532.74C1468.05 535.81 1464.83 537.56 1461.47 537.74Z" fill="#91B3FA"/>
</g>
<g opacity="0.3">
<path d="M1647.8 802.7C1642.68 802.96 1637.98 799.48 1636.88 794.3C1635.74 788.94 1634.47 783.52 1633.1 778.18C1631.64 772.49 1635.07 766.71 1640.75 765.25C1646.46 763.79 1652.22 767.22 1653.68 772.9C1655.12 778.52 1656.46 784.23 1657.66 789.87C1658.88 795.61 1655.22 801.25 1649.48 802.47C1648.92 802.6 1648.36 802.67 1647.8 802.7Z" fill="#91B3FA"/>
<path d="M1264.61 1302.42C1259.73 1302.67 1254.82 1302.84 1249.9 1302.92C1244.03 1303.02 1239.19 1298.35 1239.09 1292.48C1238.99 1286.61 1243.69 1281.75 1249.53 1281.67C1260.9 1281.47 1272.24 1280.82 1283.35 1279.7C1289.19 1279.12 1294.4 1283.37 1294.98 1289.21C1295.57 1295.05 1291.31 1300.26 1285.47 1300.84C1278.6 1301.53 1271.58 1302.06 1264.61 1302.42ZM1193.88 1300.05C1193.29 1300.08 1192.68 1300.06 1192.07 1299.99C1180.3 1298.59 1168.46 1296.68 1156.87 1294.3C1151.12 1293.12 1147.42 1287.51 1148.6 1281.76C1149.78 1276.01 1155.41 1272.29 1161.14 1273.49C1172.14 1275.75 1183.39 1277.56 1194.58 1278.9C1200.41 1279.59 1204.57 1284.88 1203.87 1290.7C1203.26 1295.91 1198.96 1299.79 1193.88 1300.05ZM1340.58 1291.42C1335.58 1291.68 1330.94 1288.35 1329.72 1283.3C1328.34 1277.59 1331.85 1271.85 1337.55 1270.48C1348.46 1267.85 1359.41 1264.71 1370.09 1261.15C1375.66 1259.3 1381.67 1262.31 1383.53 1267.87C1385.38 1273.44 1382.37 1279.46 1376.81 1281.31C1365.56 1285.06 1354.03 1288.36 1342.54 1291.14C1341.89 1291.3 1341.24 1291.39 1340.58 1291.42ZM1105.15 1279.39C1103.8 1279.46 1102.42 1279.27 1101.07 1278.79C1089.9 1274.84 1078.77 1270.37 1067.99 1265.5C1062.64 1263.08 1060.27 1256.79 1062.68 1251.45C1065.1 1246.1 1071.38 1243.72 1076.74 1246.14C1086.98 1250.77 1097.55 1255.02 1108.16 1258.76C1113.69 1260.71 1116.59 1266.79 1114.64 1272.32C1113.15 1276.5 1109.32 1279.18 1105.15 1279.39ZM1426.16 1260.38C1422.06 1260.59 1418.03 1258.39 1416.09 1254.47C1413.49 1249.21 1415.65 1242.84 1420.91 1240.24C1430.97 1235.27 1440.96 1229.8 1450.6 1223.98C1455.62 1220.95 1462.15 1222.56 1465.19 1227.59C1468.22 1232.61 1466.61 1239.14 1461.58 1242.17C1451.43 1248.3 1440.92 1254.06 1430.32 1259.29C1428.98 1259.95 1427.56 1260.31 1426.16 1260.38ZM1502.85 1211.31C1499.57 1211.48 1496.26 1210.13 1494.04 1207.38C1490.35 1202.81 1491.07 1196.12 1495.63 1192.44C1504.39 1185.37 1512.94 1177.85 1521.07 1170.09C1525.31 1166.03 1532.03 1166.18 1536.09 1170.43C1540.14 1174.67 1539.99 1181.4 1535.75 1185.45C1527.2 1193.62 1518.19 1201.53 1508.98 1208.97C1507.16 1210.43 1505.01 1211.2 1502.85 1211.31ZM1567.02 1146.7C1564.52 1146.83 1561.98 1146.08 1559.87 1144.4C1555.28 1140.75 1554.52 1134.06 1558.17 1129.47C1565.18 1120.66 1571.9 1111.45 1578.14 1102.11C1581.4 1097.23 1587.99 1095.91 1592.88 1099.17C1597.76 1102.43 1599.08 1109.02 1595.82 1113.91C1589.26 1123.74 1582.19 1133.43 1574.81 1142.7C1572.82 1145.18 1569.96 1146.55 1567.02 1146.7ZM1615.57 1069.63C1613.84 1069.72 1612.07 1069.38 1610.4 1068.58C1605.12 1066.02 1602.92 1059.67 1605.48 1054.39C1610.39 1044.26 1614.93 1033.81 1618.96 1023.33C1621.07 1017.85 1627.22 1015.12 1632.69 1017.22C1638.17 1019.33 1640.9 1025.47 1638.79 1030.95C1634.54 1042 1629.77 1053 1624.59 1063.66C1622.84 1067.27 1619.31 1069.44 1615.57 1069.63ZM1646.02 983.75C1645.05 983.8 1644.05 983.71 1643.06 983.48C1637.35 982.15 1633.8 976.43 1635.13 970.72C1637.68 959.79 1639.8 948.6 1641.43 937.46C1642.28 931.65 1647.69 927.64 1653.48 928.48C1659.29 929.33 1663.31 934.72 1662.46 940.53C1660.75 952.25 1658.52 964.03 1655.82 975.54C1654.72 980.26 1650.63 983.51 1646.02 983.75ZM1656.86 893.33C1656.64 893.34 1656.42 893.34 1656.2 893.34C1650.33 893.28 1645.62 888.48 1645.68 882.61C1645.76 874.33 1645.59 865.95 1645.17 857.69C1645.02 854.7 1644.83 851.72 1644.61 848.75C1644.18 842.9 1648.58 837.81 1654.44 837.38C1660.36 836.83 1665.38 841.35 1665.81 847.2C1666.04 850.33 1666.23 853.46 1666.39 856.6C1666.83 865.28 1667.01 874.1 1666.92 882.82C1666.88 888.48 1662.42 893.05 1656.86 893.33Z" fill="#91B3FA"/>
<path d="M1022.93 1239.56C1020.82 1239.67 1018.66 1239.15 1016.74 1237.94C1011.87 1234.88 1006.98 1231.65 1002.19 1228.36C997.36 1225.03 996.14 1218.42 999.46 1213.58C1002.79 1208.75 1009.4 1207.52 1014.24 1210.85C1018.79 1213.98 1023.44 1217.04 1028.06 1219.95C1033.02 1223.07 1034.52 1229.63 1031.39 1234.6C1029.47 1237.66 1026.27 1239.39 1022.93 1239.56Z" fill="#91B3FA"/>
</g>
<path d="M1030.98 1115.76C1032.4 1117.33 1034.66 1117.83 1036.61 1117L1092.2 1093.28C1115.41 1109.34 1141.35 1121.82 1169.26 1129.85L1186.07 1187.86C1186.66 1189.9 1188.48 1191.33 1190.59 1191.44L1262.99 1195.07C1265.11 1195.18 1267.06 1193.93 1267.85 1191.96L1290.37 1135.92C1318.95 1130.72 1346 1120.9 1370.7 1107.23L1423.64 1136.38C1425.5 1137.4 1427.8 1137.13 1429.37 1135.71L1483.13 1087.08C1484.7 1085.66 1485.2 1083.4 1484.37 1081.45L1460.65 1025.86C1476.71 1002.65 1489.19 976.71 1497.22 948.8L1555.23 931.99C1557.26 931.4 1558.7 929.59 1558.81 927.47L1562.44 855.07C1562.55 852.95 1561.3 851 1559.33 850.21L1503.29 827.69C1498.09 799.11 1488.27 772.06 1474.6 747.36L1503.76 694.42C1504.78 692.57 1504.51 690.27 1503.09 688.69L1454.46 634.93C1453.04 633.36 1450.78 632.86 1448.83 633.69L1393.24 657.41C1370.03 641.35 1344.09 628.87 1316.18 620.84L1299.37 562.83C1298.78 560.8 1296.97 559.36 1294.85 559.25L1222.45 555.62C1220.33 555.51 1218.38 556.76 1217.59 558.73L1195.07 614.77C1166.49 619.97 1139.44 629.79 1114.74 643.46L1061.8 614.31C1059.94 613.29 1057.64 613.56 1056.07 614.98L1002.31 663.61C1000.74 665.03 1000.24 667.29 1001.07 669.24L1024.79 724.83C1008.73 748.04 996.25 773.98 988.22 801.89L930.21 818.7C928.18 819.29 926.74 821.1 926.63 823.22L923 895.62C922.89 897.74 924.14 899.69 926.11 900.48L982.15 923C987.35 951.58 997.17 978.63 1010.84 1003.33L981.69 1056.27C980.67 1058.13 980.94 1060.42 982.36 1062L1030.98 1115.76Z" fill="#91B3FA"/>
<path d="M1246.37 948.13C1210.89 949.94 1178.42 925.48 1171.25 889.63C1163.38 850.23 1189.03 811.77 1228.43 803.89C1247.52 800.07 1266.95 803.92 1283.14 814.72C1299.33 825.52 1310.35 841.98 1314.17 861.06C1322.04 900.46 1296.39 938.92 1256.99 946.8C1253.44 947.51 1249.89 947.95 1246.37 948.13ZM1239.98 819.54C1237.24 819.68 1234.5 820.02 1231.76 820.57C1201.55 826.61 1181.89 856.1 1187.92 886.3C1193.96 916.51 1223.44 936.19 1253.66 930.14C1283.87 924.1 1303.53 894.61 1297.5 864.41C1294.57 849.77 1286.13 837.16 1273.71 828.87C1263.62 822.14 1251.88 818.93 1239.98 819.54Z" fill="#BDD0FB"/>
<path d="M1253.21 1053.17C1247.12 1053.48 1240.97 1053.49 1234.8 1053.18C1232.86 1053.08 1230.91 1052.95 1228.97 1052.8C1219.4 1052.01 1209.91 1050.46 1200.65 1048.18C1200.52 1048.15 1200.4 1048.12 1200.27 1048.09C1199.91 1048 1199.55 1047.91 1199.2 1047.82C1198.5 1047.64 1197.81 1047.46 1197.12 1047.27C1195.3 1046.78 1194.07 1045.18 1193.98 1043.39C1193.96 1042.95 1194 1042.51 1194.12 1042.07C1194.73 1039.8 1197.06 1038.47 1199.33 1039.07C1210.99 1042.2 1223.07 1044.1 1235.23 1044.7C1295.63 1047.74 1350.37 1018.82 1383.04 972.82C1401.21 947.24 1412.55 916.37 1414.23 882.78C1414.53 876.89 1414.52 871.03 1414.22 865.21C1412.22 826.1 1396.96 789.17 1370.34 759.74C1339.76 725.93 1297.84 706.05 1252.31 703.77C1158.28 699.07 1078.02 771.71 1073.31 865.69C1073.02 871.49 1073.02 877.27 1073.32 883.03C1074.6 907.98 1081.32 932.37 1093.08 954.43C1093.38 955 1093.55 955.61 1093.57 956.21C1093.65 957.8 1092.83 959.38 1091.33 960.18C1089.25 961.28 1086.68 960.51 1085.58 958.43C1073.23 935.27 1066.17 909.66 1064.83 883.47C1064.52 877.43 1064.52 871.35 1064.82 865.27C1069.76 766.59 1154.09 690.34 1252.73 695.28C1300.53 697.67 1344.54 718.54 1376.64 754.03C1404.59 784.93 1420.61 823.69 1422.71 864.75C1423.02 870.85 1423.02 877.01 1422.72 883.19C1420.32 930.99 1399.46 975 1363.97 1007.11C1333.06 1035.06 1294.28 1051.07 1253.21 1053.17Z" fill="#BDD0FB"/>
<g opacity="0.3">
<path d="M486.54 1251.8C483.7 1251.94 481 1250.23 480.02 1247.41C478.18 1242.15 476.47 1236.77 474.95 1231.4C473.96 1227.91 475.98 1224.29 479.47 1223.3C482.96 1222.29 486.58 1224.34 487.57 1227.82C489.02 1232.93 490.65 1238.06 492.4 1243.08C493.6 1246.5 491.79 1250.24 488.37 1251.44C487.77 1251.66 487.15 1251.77 486.54 1251.8Z" fill="#91B3FA"/>
<path d="M474.32 1202.83C471 1203 468.02 1200.63 467.51 1197.27C466.05 1187.79 465.06 1178.13 464.58 1168.55C464.48 1166.53 464.4 1164.51 464.34 1162.48C464.24 1158.85 467.28 1155.96 470.7 1155.72C474.32 1155.61 477.35 1158.46 477.46 1162.08C477.52 1164.02 477.59 1165.96 477.69 1167.88C478.16 1177.01 479.1 1186.23 480.48 1195.27C481.03 1198.85 478.57 1202.2 474.99 1202.76C474.76 1202.79 474.54 1202.82 474.32 1202.83ZM472.29 1134.72C471.98 1134.74 471.66 1134.73 471.35 1134.7C467.74 1134.36 465.08 1131.17 465.42 1127.56C466.49 1115.98 468.28 1104.37 470.75 1093.04C471.52 1089.5 475.04 1087.26 478.56 1088.03C482.1 1088.81 484.34 1092.3 483.57 1095.84C481.21 1106.64 479.5 1117.72 478.48 1128.77C478.18 1132.06 475.5 1134.56 472.29 1134.72ZM486.84 1068.16C486.01 1068.2 485.16 1068.08 484.32 1067.79C480.9 1066.58 479.11 1062.83 480.32 1059.41C484.19 1048.46 488.78 1037.64 493.98 1027.24C495.6 1023.99 499.53 1022.68 502.78 1024.31C506.02 1025.93 507.33 1029.87 505.71 1033.11C500.75 1043.03 496.37 1053.34 492.68 1063.78C491.79 1066.37 489.42 1068.03 486.84 1068.16ZM517.31 1007.21C515.95 1007.28 514.57 1006.93 513.35 1006.12C510.33 1004.11 509.51 1000.03 511.52 997.02C517.97 987.34 525.07 977.97 532.63 969.18C535 966.44 539.14 966.13 541.88 968.49C544.63 970.85 544.94 974.99 542.57 977.75C535.36 986.13 528.58 995.06 522.44 1004.29C521.25 1006.09 519.32 1007.11 517.31 1007.21ZM561.74 955.55C559.85 955.65 557.92 954.92 556.55 953.41C554.11 950.73 554.31 946.58 556.99 944.14C565.59 936.33 574.75 928.97 584.22 922.28C587.18 920.18 591.27 920.89 593.37 923.85C595.46 926.81 594.76 930.91 591.8 933C582.76 939.39 574.03 946.41 565.82 953.86C564.65 954.91 563.2 955.48 561.74 955.55ZM617.36 916.24C614.91 916.37 612.48 915.1 611.24 912.78C609.53 909.59 610.73 905.61 613.92 903.9C624.16 898.41 634.83 893.51 645.65 889.34C649.05 888.04 652.83 889.73 654.14 893.1C655.44 896.48 653.76 900.28 650.38 901.58C640.06 905.56 629.89 910.23 620.13 915.46C619.24 915.95 618.29 916.2 617.36 916.24ZM680.88 891.74C677.81 891.9 674.96 889.87 674.19 886.77C673.31 883.25 675.46 879.69 678.97 878.81C690.2 876.01 701.76 873.88 713.32 872.48C716.93 872.1 720.19 874.61 720.62 878.21C721.06 881.81 718.49 885.08 714.9 885.52C703.87 886.85 692.85 888.88 682.14 891.55C681.71 891.66 681.29 891.71 680.88 891.74ZM782.58 885.72C782.2 885.74 781.81 885.73 781.42 885.68C771.93 884.49 762.2 883.8 752.51 883.62C751.04 883.59 749.6 883.57 748.16 883.57C744.53 883.56 741.6 880.63 741.6 877C741.6 873.37 744.56 870.33 748.17 870.44C749.7 870.45 751.23 870.46 752.77 870.49C762.89 870.67 773.09 871.4 783.04 872.65C786.64 873.1 789.19 876.38 788.73 879.98C788.35 883.19 785.7 885.56 782.58 885.72Z" fill="#91B3FA"/>
</g>
<g opacity="0.3">
<path d="M765.89 1436.7C762.31 1436.88 759.24 1434.15 759.01 1430.56C758.78 1426.95 761.52 1423.82 765.14 1423.59C776.03 1422.89 786.97 1421.53 797.65 1419.53C801.2 1418.9 804.64 1421.21 805.31 1424.77C805.98 1428.34 803.63 1431.76 800.07 1432.43C788.86 1434.52 777.4 1435.96 765.98 1436.69C765.96 1436.69 765.92 1436.69 765.89 1436.7ZM732.32 1436.82C732.08 1436.83 731.85 1436.83 731.61 1436.82C720.2 1436.18 708.72 1434.84 697.48 1432.84C693.91 1432.2 691.53 1428.8 692.17 1425.23C692.8 1421.66 696.23 1419.29 699.78 1419.91C710.51 1421.82 721.46 1423.1 732.35 1423.71C735.97 1423.91 738.74 1427.01 738.53 1430.63C738.34 1434.02 735.63 1436.65 732.32 1436.82ZM831.75 1424.36C828.84 1424.51 826.09 1422.7 825.16 1419.79C824.06 1416.34 825.97 1412.65 829.42 1411.55C839.82 1408.24 850.11 1404.27 860 1399.74C863.31 1398.24 867.19 1399.68 868.7 1402.98C870.21 1406.27 868.76 1410.17 865.46 1411.68C855.09 1416.42 844.31 1420.59 833.4 1424.06C832.86 1424.23 832.3 1424.33 831.75 1424.36ZM666.33 1425.03C665.58 1425.07 664.82 1424.98 664.06 1424.75C653.13 1421.39 642.31 1417.31 631.88 1412.64C628.57 1411.16 627.09 1407.28 628.57 1403.97C630.05 1400.67 633.93 1399.19 637.24 1400.67C647.18 1405.12 657.5 1409.01 667.92 1412.22C671.38 1413.29 673.33 1416.96 672.26 1420.42C671.43 1423.11 669 1424.89 666.33 1425.03ZM892.67 1396.46C890.35 1396.58 888.04 1395.46 886.74 1393.34C884.84 1390.25 885.81 1386.21 888.89 1384.31C898.17 1378.61 907.2 1372.29 915.72 1365.5C918.56 1363.24 922.69 1363.71 924.94 1366.55C927.2 1369.39 926.73 1373.52 923.89 1375.77C914.95 1382.88 905.49 1389.52 895.76 1395.49C894.79 1396.1 893.73 1396.41 892.67 1396.46ZM945.12 1354.77C943.34 1354.86 941.54 1354.23 940.18 1352.89C937.6 1350.35 937.57 1346.19 940.11 1343.61C947.77 1335.83 955.03 1327.53 961.68 1318.92C963.9 1316.05 968.02 1315.52 970.89 1317.74C973.76 1319.96 974.29 1324.07 972.07 1326.94C965.1 1335.96 957.49 1344.67 949.46 1352.82C948.26 1354.04 946.7 1354.69 945.12 1354.77ZM986.07 1301.71C984.82 1301.77 983.54 1301.49 982.39 1300.79C979.27 1298.94 978.25 1294.91 980.1 1291.8C985.68 1282.42 990.73 1272.62 995.11 1262.66C996.57 1259.35 1000.44 1257.84 1003.76 1259.3C1007.08 1260.76 1008.58 1264.63 1007.12 1267.95C1002.52 1278.39 997.23 1288.67 991.38 1298.51C990.22 1300.47 988.19 1301.6 986.07 1301.71Z" fill="#91B3FA"/>
<path d="M604.88 1397.48C603.62 1397.54 602.32 1397.24 601.16 1396.54C596.35 1393.63 591.61 1390.57 587.06 1387.44C584.08 1385.38 583.32 1381.3 585.38 1378.31C587.44 1375.34 591.52 1374.58 594.51 1376.63C598.85 1379.62 603.37 1382.54 607.96 1385.31C611.06 1387.19 612.05 1391.22 610.18 1394.32C608.99 1396.26 606.98 1397.37 604.88 1397.48Z" fill="#91B3FA"/>
</g>
<path d="M606.01 1312.54C606.96 1313.59 608.47 1313.92 609.78 1313.37L646.98 1297.5C662.51 1308.25 679.87 1316.6 698.54 1321.97L709.79 1360.79C710.18 1362.15 711.4 1363.11 712.81 1363.18L761.26 1365.61C762.68 1365.68 763.98 1364.85 764.51 1363.53L779.58 1326.03C798.7 1322.55 816.81 1315.98 833.33 1306.83L868.76 1326.34C870 1327.02 871.54 1326.84 872.59 1325.89L908.56 1293.35C909.61 1292.4 909.94 1290.89 909.39 1289.58L893.52 1252.38C904.27 1236.85 912.62 1219.49 917.99 1200.81L956.81 1189.56C958.17 1189.17 959.13 1187.95 959.2 1186.54L961.63 1138.09C961.7 1136.67 960.87 1135.37 959.55 1134.84L922.05 1119.77C918.57 1100.65 912 1082.54 902.85 1066.02L922.36 1030.59C923.04 1029.35 922.86 1027.81 921.91 1026.76L889.37 990.79C888.42 989.74 886.91 989.41 885.6 989.96L848.4 1005.83C832.87 995.08 815.51 986.73 796.84 981.36L785.59 942.54C785.2 941.18 783.98 940.22 782.57 940.15L734.12 937.72C732.7 937.65 731.4 938.48 730.87 939.8L715.8 977.3C696.68 980.78 678.57 987.35 662.05 996.5L626.63 977C625.39 976.32 623.85 976.5 622.8 977.45L586.83 1009.99C585.78 1010.94 585.45 1012.45 586 1013.76L601.87 1050.96C591.12 1066.49 582.77 1083.85 577.4 1102.53L538.58 1113.78C537.22 1114.17 536.26 1115.39 536.19 1116.81L533.76 1165.26C533.69 1166.68 534.52 1167.98 535.84 1168.51L573.34 1183.58C576.82 1202.7 583.39 1220.8 592.54 1237.33L573.03 1272.76C572.35 1274 572.53 1275.54 573.48 1276.59L606.01 1312.54Z" fill="#91B3FA"/>
<path d="M750.11 1201.25C739.54 1201.79 729.11 1198.94 720.15 1192.96C709.12 1185.6 701.62 1174.39 699.02 1161.39C693.66 1134.56 711.12 1108.36 737.96 1102.99C764.84 1097.67 791 1115.1 796.36 1141.94C798.96 1154.94 796.34 1168.18 788.98 1179.21C781.62 1190.24 770.41 1197.75 757.41 1200.34C754.99 1200.83 752.54 1201.13 750.11 1201.25ZM745.85 1115.2C744.09 1115.29 742.31 1115.51 740.53 1115.86C720.79 1119.81 707.94 1139.08 711.88 1158.82C713.79 1168.38 719.31 1176.63 727.42 1182.04C735.54 1187.45 745.27 1189.37 754.84 1187.47C764.4 1185.56 772.65 1180.04 778.06 1171.93C783.47 1163.81 785.4 1154.08 783.49 1144.51C779.91 1126.55 763.63 1114.29 745.85 1115.2Z" fill="#BDD0FB"/>
<path d="M754.78 1274.37C750.63 1274.58 746.44 1274.58 742.21 1274.38C733.81 1273.96 725.43 1272.69 717.31 1270.59C716.95 1270.49 716.58 1270.4 716.22 1270.3C713.4 1269.55 711.51 1267.07 711.37 1264.3C711.34 1263.63 711.41 1262.94 711.59 1262.26C712.53 1258.76 716.13 1256.7 719.63 1257.63C727.2 1259.66 735.02 1260.89 742.87 1261.28C743.3 1261.3 743.73 1261.32 744.16 1261.34C762.76 1262.09 780.84 1258.18 797.1 1250.17C805.93 1245.82 814.22 1240.25 821.77 1233.55C821.83 1233.5 821.89 1233.44 821.95 1233.39C822.14 1233.22 822.32 1233.06 822.51 1232.89C844.39 1213.09 857.26 1185.95 858.74 1156.48C858.93 1152.67 858.93 1148.87 858.74 1145.11C857.45 1119.79 847.57 1095.89 830.33 1076.83C810.53 1054.94 783.39 1042.08 753.92 1040.61C724.46 1039.15 696.16 1049.23 674.27 1069.02C652.39 1088.82 639.52 1115.96 638.04 1145.43C637.85 1149.18 637.85 1152.93 638.04 1156.65C638.87 1172.8 643.22 1188.59 650.83 1202.87C651.3 1203.75 651.55 1204.69 651.59 1205.62C651.72 1208.08 650.44 1210.51 648.13 1211.74C644.93 1213.44 640.96 1212.24 639.25 1209.04C630.73 1193.06 625.86 1175.39 624.93 1157.33C624.72 1153.16 624.71 1148.97 624.92 1144.77C626.57 1111.79 640.97 1081.43 665.46 1059.28C689.95 1037.13 721.57 1025.82 754.57 1027.49C787.55 1029.14 817.91 1043.53 840.06 1068.02C859.35 1089.34 870.4 1116.08 871.85 1144.41C872.06 1148.61 872.07 1152.86 871.86 1157.13C868.66 1220.94 817.3 1271.18 754.78 1274.37Z" fill="#BDD0FB"/>
<defs>
<linearGradient id="paint0_linear_28_21" x1="3571.21" y1="4081.41" x2="1079.74" y2="987.157" gradientUnits="userSpaceOnUse">
<stop stop-color="#DAE3FE"/>
<stop offset="1" stop-color="#E9EFFD"/>
</linearGradient>
<linearGradient id="paint1_linear_28_21" x1="3997.05" y1="2030.14" x2="-1343.61" y2="1602.89" gradientUnits="userSpaceOnUse">
<stop stop-color="#4F52FF"/>
<stop offset="1" stop-color="#4042E2"/>
</linearGradient>
<linearGradient id="paint2_linear_28_21" x1="3873.14" y1="724.546" x2="-4739.5" y2="5018.39" gradientUnits="userSpaceOnUse">
<stop stop-color="#4F52FF"/>
<stop offset="1" stop-color="#4042E2"/>
</linearGradient>
<linearGradient id="paint3_linear_28_21" x1="4760.9" y1="-319.149" x2="-2640.98" y2="4798.51" gradientUnits="userSpaceOnUse">
<stop stop-color="#4F52FF"/>
<stop offset="1" stop-color="#4042E2"/>
</linearGradient>
<linearGradient id="paint4_linear_28_21" x1="3185.53" y1="-1454.22" x2="1163.52" y2="2861.25" gradientUnits="userSpaceOnUse">
<stop stop-color="#FF928E"/>
<stop offset="1" stop-color="#FE7062"/>
</linearGradient>
<linearGradient id="paint5_linear_28_21" x1="3018.36" y1="2162.9" x2="4028.27" y2="2496.77" gradientUnits="userSpaceOnUse">
<stop stop-color="#4F52FF"/>
<stop offset="1" stop-color="#4042E2"/>
</linearGradient>
<linearGradient id="paint6_linear_28_21" x1="3039.4" y1="2071.49" x2="4093.62" y2="2212.94" gradientUnits="userSpaceOnUse">
<stop stop-color="#4F52FF"/>
<stop offset="1" stop-color="#4042E2"/>
</linearGradient>
<linearGradient id="paint7_linear_28_21" x1="1574.31" y1="1512.51" x2="2635.14" y2="2048.29" gradientUnits="userSpaceOnUse">
<stop stop-color="#09005D"/>
<stop offset="1" stop-color="#1A0F91"/>
</linearGradient>
<linearGradient id="paint8_linear_28_21" x1="1756.33" y1="1803" x2="2644.25" y2="2096.54" gradientUnits="userSpaceOnUse">
<stop stop-color="#09005D"/>
<stop offset="1" stop-color="#1A0F91"/>
</linearGradient>
<linearGradient id="paint9_linear_28_21" x1="2294.33" y1="3204.03" x2="2150.35" y2="3209.05" gradientUnits="userSpaceOnUse">
<stop stop-color="#09005D"/>
<stop offset="1" stop-color="#1A0F91"/>
</linearGradient>
<linearGradient id="paint10_linear_28_21" x1="2283.73" y1="3147.99" x2="2247.04" y2="3153.03" gradientUnits="userSpaceOnUse">
<stop stop-color="#FEBBBA"/>
<stop offset="1" stop-color="#FF928E"/>
</linearGradient>
<linearGradient id="paint11_linear_28_21" x1="3005.18" y1="2952.44" x2="2982.81" y2="3094.77" gradientUnits="userSpaceOnUse">
<stop stop-color="#09005D"/>
<stop offset="1" stop-color="#1A0F91"/>
</linearGradient>
<linearGradient id="paint12_linear_28_21" x1="2948.15" y1="2952.22" x2="2946.15" y2="2989.2" gradientUnits="userSpaceOnUse">
<stop stop-color="#FEBBBA"/>
<stop offset="1" stop-color="#FF928E"/>
</linearGradient>
<linearGradient id="paint13_linear_28_21" x1="2242.22" y1="1958.4" x2="2301.28" y2="1977.84" gradientUnits="userSpaceOnUse">
<stop stop-color="#FEBBBA"/>
<stop offset="1" stop-color="#FF928E"/>
</linearGradient>
<linearGradient id="paint14_linear_28_21" x1="1936.22" y1="2972.16" x2="2387.59" y2="2413.98" gradientUnits="userSpaceOnUse">
<stop stop-color="#FF928E"/>
<stop offset="1" stop-color="#FE7062"/>
</linearGradient>
<linearGradient id="paint15_linear_28_21" x1="2454.4" y1="2012.61" x2="2666.14" y2="2533.38" gradientUnits="userSpaceOnUse">
<stop stop-color="#FEBBBA"/>
<stop offset="1" stop-color="#FF928E"/>
</linearGradient>
<linearGradient id="paint16_linear_28_21" x1="2528.38" y1="2112.49" x2="2512.7" y2="2308.83" gradientUnits="userSpaceOnUse">
<stop stop-color="#FEBBBA"/>
<stop offset="1" stop-color="#FF928E"/>
</linearGradient>
<linearGradient id="paint17_linear_28_21" x1="2575.66" y1="2321.08" x2="2569.44" y2="2184.73" gradientUnits="userSpaceOnUse">
<stop stop-color="#FEBBBA"/>
<stop offset="1" stop-color="#FF928E"/>
</linearGradient>
<linearGradient id="paint18_linear_28_21" x1="2774.4" y1="2067.29" x2="2810.67" y2="2074.68" gradientUnits="userSpaceOnUse">
<stop stop-color="#FEBBBA"/>
<stop offset="1" stop-color="#FF928E"/>
</linearGradient>
</defs>
</svg>
