<?xml version="1.0" encoding="utf-8"?>
<!-- Generator: Adobe Illustrator 24.3.0, SVG Export Plug-In . SVG Version: 6.00 Build 0)  -->
<svg version="1.1" id="Layer_1" xmlns="http://www.w3.org/2000/svg" xmlns:xlink="http://www.w3.org/1999/xlink" x="0px" y="0px"
	 viewBox="0 0 3000 1800" style="enable-background:new 0 0 3000 1800;" xml:space="preserve">
<style type="text/css">
	.st0{fill:#FFFFFF;}
	.st1{fill:#DCECFD;}
	.st2{fill:#324D90;}
	.st3{fill:#4292F3;}
	.st4{fill:#BEDBFA;}
	.st5{fill:#2A437D;}
	.st6{fill:#F08F3C;}
	.st7{fill:#F9CE68;}
	.st8{fill:#152E60;}
	.st9{clip-path:url(#XMLID_2_);fill:#3C7ED7;}
	.st10{clip-path:url(#XMLID_3_);fill:#EDA19D;}
	.st11{fill:#59445A;}
	.st12{fill:#F4D2C6;}
	.st13{fill:#3C7ED7;}
</style>
<rect class="st0" width="3000" height="1800"/>
<g>
	<path class="st1" d="M295.88,1635.06h2439.89c-31.28-329.47,57.77-902.84-348.11-1041.39
		c-590.95-274.79-649.33-227.77-1157.74,147.92c-134.58,100.87-309.09,87.16-458.44,29.22c-198.47-63.99-375.76,54.72-480.29,218.15
		C133.1,1156.29,256.88,1445.72,295.88,1635.06z"/>
	<path class="st0" d="M1931.33,900.15H1531.9c12.12-25.26,24.46-28.11,48.8-34.55c5.04-3.37,6.51-9.94,8.32-15.73
		c30.25-84,146.39-66.46,191.04-2.89c17.67-8.51,39.98-16.66,55.52-4.69c9.4,7.24,14.09,20.71,25.41,24.25
		c8.04,2.51,16.58-1.01,24.97-1.65C1902.07,863.67,1926.31,884.79,1931.33,900.15z"/>
	<path class="st0" d="M2048.25,591.46h-216.02c4.55-9.21,14-14.81,24.19-16.12c11.25-46.67,74.29-44.15,102-12.92
		c9.92-14.74,28.92-2.11,36.42,9.18C2014.04,552.86,2040.79,568.95,2048.25,591.46z"/>
	<path class="st0" d="M1429.36,1031.51h-230.58c5.53-8.41,11.05-13.14,20.75-15.84c14.38-55.46,89.4-55.42,124.29-18.52
		c12.94-17.27,41.59-8.29,42.38,13.26C1401.41,1004.79,1423.44,1016.4,1429.36,1031.51z"/>
	<g>
		<path class="st2" d="M1525.55,1635.07c-76.03-0.35-135.95,14.26-174.67-69.89c31.06-0.7,58.39,19.1,83.06,37.99
			c-28.87-25.36-36.39-67.56-34.08-105.92c32.05,27.23,62.68,58.07,79.17,96.76c-2.47-28.81-4.83-58.61,4.54-85.96
			C1515.54,1537.98,1532.81,1591.87,1525.55,1635.07z"/>
		<g>
			<polygon class="st3" points="2048.77,866.77 1926.51,1034.06 1749.5,1070.35 1749.5,1340.83 1464.71,1635.06 2062.78,1635.06 
				2189.84,1049.17 			"/>
			<polygon class="st4" points="2280.23,688.56 2048.77,866.77 2097.39,1049.17 1905.56,1162.19 1885.51,1443.16 1628.23,1635.06 
				2529.96,1635.06 2584.62,1161.81 2461.22,1044.44 2412.7,806.62 			"/>
			<polygon class="st3" points="2412.7,806.62 2228.16,995.99 2266.88,1054.36 2266.88,1291.46 2398.47,1328.87 2404.7,1307.01 
				2311.24,1255.1 2337.56,1047.57 2266.88,1002.96 2428.3,883.07 			"/>
			<polygon class="st3" points="1931.33,1635.06 2112.92,1403.85 2395.36,1372.95 2302.24,1416.56 2428.3,1509.68 2202.05,1457.81 
				2072.4,1504 2047.65,1635.06 			"/>
			<polygon class="st1" points="2097.39,1049.17 2151.14,1022.99 2179.81,1095.4 2078.62,1294.27 2106.43,1294.27 2234.4,1088.79 
				2179.81,962.55 2100.1,962.55 2048.77,866.77 			"/>
			<polygon class="st1" points="2404.7,1307.01 2416.44,1258.69 2481.58,1328.87 2458.05,1472.21 2438.15,1464.97 2452.63,1328.87 
							"/>
			<polygon class="st1" points="1946.8,1137.89 1972.94,1328.87 1931.33,1472.21 1809.34,1606.99 1885.51,1443.16 1905.56,1162.19 
							"/>
			<polygon class="st3" points="2584.62,1161.81 2654.93,1386.11 2648.23,1635.06 2529.96,1635.06 			"/>
		</g>
		<path class="st2" d="M2622.27,1635.06c0,0,84.26-19.32,101.3-86.54c0,0-62.42,12.39-81.42,33.14c0,0,50.18-56.8,46.39-128.76
			c0,0-75.74,41.66-80.47,95.62c0,0-2.29-73.6-60.79-132.42c0,0-15.9,91.71,7.77,151.35c0,0-47.34-42.6-97.51-52.07
			c0,0-0.95,73.85,74.79,86.15c0,0-38.82-17.04-87.1-14.2C2492.96,1635.48,2538.15,1638.25,2622.27,1635.06z"/>
		<g>
			<polygon class="st5" points="2294.36,683.36 2360.32,827.94 2327.34,827.94 2271.87,708.34 			"/>
			<polygon class="st5" points="2186.94,683.36 2120.99,827.94 2153.97,827.94 2209.43,708.34 			"/>
			<g>
				<path class="st6" d="M2323.77,468.85c-127-30.21-267.65,311-113.43,345.77C2337.33,844.83,2477.99,503.62,2323.77,468.85z"/>
				<g>
					<path class="st7" d="M2188.53,812.55c-154.23-34.79-13.52-376.03,113.44-345.76C2456.19,501.58,2315.49,842.81,2188.53,812.55z
						"/>
					<path class="st0" d="M2201,774.55c-120.33-27.14-10.55-293.37,88.51-269.76C2409.82,531.93,2300.05,798.16,2201,774.55z"/>
					<path class="st7" d="M2213.46,736.55c-86.42-19.49-7.58-210.71,63.57-193.75C2363.45,562.29,2284.61,753.51,2213.46,736.55z"/>
					<path class="st0" d="M2225.93,698.55c-52.52-11.85-4.6-128.06,38.63-117.75C2317.08,592.64,2269.17,708.85,2225.93,698.55z"/>
					<path class="st7" d="M2258.6,641.74c-3.78,11.53-12.83,19.95-20.2,18.81c-18.63-4.18-1.63-45.42,13.7-41.75
						C2259.47,619.94,2262.38,630.21,2258.6,641.74z"/>
				</g>
			</g>
		</g>
	</g>
	<g>
		<path class="st8" d="M633.8,1594.54l3.57,12.51l38.57,16.53c4.59,1.97,7.57,6.49,7.57,11.49h-79.66l3.02-40.53H633.8z"/>
		<path class="st8" d="M454.97,1594.54l3.57,12.51l38.57,16.53c4.59,1.97,7.57,6.49,7.57,11.49h-79.66l3.02-40.53H454.97z"/>
		<g>
			<g>
				<defs>
					<path id="XMLID_00000131357406444780977350000008696107071176627346_" d="M604.06,910.48l80.28,64.81l15.15-132.83l34.3-3.42
						l10.04,168.71c0.77,12.98-4.05,25.67-13.24,34.87h0c-13.33,13.33-33.49,17.05-50.7,9.38l-106.2-45.14L604.06,910.48z"/>
				</defs>
				<use xlink:href="#XMLID_00000131357406444780977350000008696107071176627346_"  style="overflow:visible;fill:#4292F3;"/>
				<clipPath id="XMLID_2_">
					<use xlink:href="#XMLID_00000131357406444780977350000008696107071176627346_"  style="overflow:visible;"/>
				</clipPath>
				<path class="st9" d="M610.41,915.42c0,0,60.98,69.17,69.49,136.57c8.5,67.4,0,0,0,0l-76.9-21.83L610.41,915.42"/>
			</g>
			<path class="st2" d="M681.95,1306.56l-38.81-182.62c-47.22,0-118.91,0-165.84,0l-52.27,477.8h37.92l99.79-353.58l39.48,85.66
				l1.08,269.31h39.84l39.62-271.31C683.99,1323.42,683.72,1314.87,681.95,1306.56z"/>
			<path class="st5" d="M562.74,1248.16l14.69-57.14c67.96,165.01,57.9,125.24,25.42,297.91l-0.62-155.11L562.74,1248.16z"/>
			<g>
				<g>
					<defs>
						<path id="XMLID_00000003827132378449912810000004942264167061875384_" d="M564.02,904.06l4.5-42.1l0.01,0
							c-40.62-47.47,22.87-110.11,62.22-59.03c22.22,31.99,15.59,85.49-27,79.95l6.67,32.53L564.02,904.06z"/>
					</defs>
					<use xlink:href="#XMLID_00000003827132378449912810000004942264167061875384_"  style="overflow:visible;fill:#F4D2C6;"/>
					<clipPath id="XMLID_3_">
						<use xlink:href="#XMLID_00000003827132378449912810000004942264167061875384_"  style="overflow:visible;"/>
					</clipPath>
					<path class="st10" d="M603.74,882.89c0,0-9.33-4.01-11.35-9.41c0,0,26.41,11.1,42.59-1.71c16.18-12.81,0,0,0,0
						S624.44,888.6,603.74,882.89"/>
					<path class="st10" d="M596.34,823.94c0,0,14.93-21.96,44.56-11.4c0,0-13.5-22.67-19.46-25.2
						c-5.96-2.53-21.21,13.92-21.21,13.92L596.34,823.94z"/>
				</g>
				<path class="st11" d="M598.62,822.69c0,0,9.66-31.32,24.22-28.83c-22.67-37.01-97.68,5.68-77.89,45.84
					c8.01,14.1,22.77,29.7,22.77,29.7s14.39-2.29,14.59-4.16c0.2-1.87,5.31-25.83,5.31-25.83L598.62,822.69z"/>
				<path class="st12" d="M602.55,833.85c-3.62,12.28-22.81,6.31-18.84-5.85C587.33,815.72,606.53,821.68,602.55,833.85z"/>
			</g>
			<path class="st3" d="M498.61,1090.12"/>
			<path class="st3" d="M683.52,1195.78"/>
			<path class="st3" d="M651.82,1122.38l-40.64-214.53l-47.52-27.15c-79.45,13.71-99.58,251.97-102.89,275.36
				C460.77,1156.05,557.05,1187.12,651.82,1122.38z"/>
			<polygon class="st2" points="611.18,907.85 606.57,911.44 622.84,1043.63 662.56,1076.22 659.89,1024.93 			"/>
			<g>
				
					<rect x="765.67" y="762.51" transform="matrix(0.9902 -0.1395 0.1395 0.9902 -102.5984 124.0041)" class="st2" width="135.09" height="62.63"/>
				
					<rect x="685.45" y="786.25" transform="matrix(0.9902 -0.1395 0.1395 0.9902 -105.7482 109.2254)" class="st5" width="81.54" height="45.32"/>
				
					<rect x="624.04" y="808.1" transform="matrix(0.9902 -0.1395 0.1395 0.9902 -107.8417 99.4012)" class="st8" width="62.11" height="21.65"/>
				
					<rect x="895.36" y="744.38" transform="matrix(0.9902 -0.1395 0.1395 0.9902 -100.5337 133.5369)" class="st8" width="13.73" height="78.95"/>
			</g>
			<g>
				<g>
					<g>
						<path class="st6" d="M903.55,1096.8l-115.29,18.75c-12.66,2.06-23.52,10.18-29.07,21.74l-32.22,67.15l14.99,20.04l37.31-72.06
							c3.63-7.01,9.97-12.24,17.55-14.46l112.32-32.92C911.54,1101.04,908.16,1096.05,903.55,1096.8z"/>
						<path class="st6" d="M515.24,1387.23l50.56-105.3c5.55-11.56,16.41-19.68,29.07-21.74l73.52-11.94l14.99,20.04l-79.66,15.43
							c-7.75,1.5-14.56,6.11-18.83,12.75l-63.31,98.44C517.05,1396.1,513.22,1391.44,515.24,1387.23z"/>
						
							<rect x="692.56" y="1199.99" transform="matrix(0.5989 0.8008 -0.8008 0.5989 1273.1125 -68.8815)" class="st5" width="25.53" height="73.16"/>
					</g>
					<path class="st2" d="M909.14,1105.05c-123.59,93.61-262.86,197.78-387.57,289.88C645.16,1301.32,784.43,1197.16,909.14,1105.05
						L909.14,1105.05z"/>
				</g>
			</g>
			<path class="st0" d="M611.18,907.85l-14.54,11.31c0,0-43.69-18.6-32.98-38.46L611.18,907.85z"/>
			<path class="st12" d="M702.86,842.12c0.75-0.65-21.51-36.39-2.46-23.19c0,0,13.08,14.66,13.08,14.66l22.02-3.1l-4.86,8.87
				L702.86,842.12z"/>
			<path class="st3" d="M573.69,940.86l8.51,135.36l123.97,135.67l-29.82,22.81c-15.81-13.24-140.78-95-148.72-111.54l0,0
				c-23.92-26.42-18.91-114.35-24.08-147.21L573.69,940.86z"/>
			<path class="st13" d="M568.94,1158.17c-57.8-42.66-56.89-61.75-61.3-127.73c-11.87,70.28-35.63,92.2,46.63,130.41L568.94,1158.17
				z"/>
			<polygon class="st13" points="634.56,1133.14 582.2,1076.22 578.8,1022.1 599.44,1076.22 643.92,1127.56 			"/>
			<path class="st12" d="M700.62,1214.56c0,0,17.7,2.71,20.2,5.83c1.6,1.99,4.04,14.01,5.6,22.43c0.91,4.93-1.59,9.86-6.12,12.02
				c-33.66,17.71-24.87,9.14-41.36-22.13L700.62,1214.56z"/>
		</g>
	</g>
	<g>
		<g>
			<g>
				<g>
					<g>
						<polygon class="st3" points="804.73,1426.94 802.11,1436.12 784.19,1418.31 786.81,1409.13 						"/>
						<polygon class="st0" points="807.36,1417.71 804.74,1426.89 786.82,1409.07 789.44,1399.9 						"/>
						<polygon class="st3" points="809.97,1408.56 807.35,1417.74 789.43,1399.92 792.05,1390.75 						"/>
						<polygon class="st0" points="812.55,1399.51 809.93,1408.68 792.01,1390.87 794.63,1381.69 						"/>
						<polygon class="st3" points="815.16,1390.36 812.54,1399.53 794.62,1381.72 797.24,1372.54 						"/>
					</g>
					<g>
						<polygon class="st3" points="839.21,1394.44 841.83,1385.26 817.21,1390.94 814.59,1400.12 						"/>
						<polygon class="st0" points="836.58,1403.67 839.2,1394.49 814.57,1400.17 811.96,1409.35 						"/>
						<polygon class="st3" points="833.97,1412.82 836.59,1403.64 811.96,1409.32 809.35,1418.5 						"/>
						<polygon class="st0" points="831.39,1421.87 834,1412.7 809.38,1418.38 806.76,1427.55 						"/>
						<polygon class="st3" points="828.78,1431.02 831.39,1421.85 806.77,1427.53 804.15,1436.7 						"/>
					</g>
					<polygon class="st8" points="819.07,1391.36 749.56,1635.06 743.38,1635.1 813.36,1389.73 					"/>
				</g>
			</g>
		</g>
		<path class="st8" d="M774.28,1325.07l0.65-9.52c-31.15,13.71-17.32,14.6-46.26-3.16l-0.65,9.52l0,0l-0.64,9.36l0,0l-0.65,9.49l0,0
			l-0.65,9.52l19.41,12.52l0,0.06l-19.41-12.52l-0.65,9.52l19.41,12.52l-14.23,262.68l5.8,0l14.35-262.28l20.93-9.76l0.65-9.52l0,0
			l0.65-9.49l0,0l0.64-9.39l0,0l0.65-9.49l-20.93,9.76l0-0.06L774.28,1325.07z"/>
		<g>
			<g>
				<g>
					<g>
						<polygon class="st3" points="708.53,1418.25 708.67,1427.79 686.37,1415.92 686.22,1406.38 						"/>
						<polygon class="st0" points="708.38,1408.65 708.52,1418.19 686.22,1406.32 686.08,1396.78 						"/>
						<polygon class="st3" points="708.24,1399.14 708.38,1408.68 686.08,1396.8 685.93,1387.26 						"/>
						<polygon class="st0" points="708.09,1389.73 708.24,1399.27 685.93,1387.39 685.79,1377.85 						"/>
						<polygon class="st3" points="707.95,1380.21 708.09,1389.76 685.79,1377.88 685.64,1368.34 						"/>
					</g>
					<g>
						<polygon class="st3" points="732.15,1377.17 732.01,1367.63 710.07,1380.18 710.22,1389.72 						"/>
						<polygon class="st0" points="732.3,1386.77 732.15,1377.23 710.22,1389.78 710.37,1399.32 						"/>
						<polygon class="st3" points="732.44,1396.29 732.3,1386.74 710.37,1399.29 710.51,1408.84 						"/>
						<polygon class="st0" points="732.58,1405.7 732.44,1396.16 710.51,1408.71 710.65,1418.25 						"/>
						<polygon class="st3" points="732.73,1415.21 732.58,1405.67 710.65,1418.22 710.8,1427.76 						"/>
					</g>
					
						<rect x="583.37" y="1504.68" transform="matrix(-0.0152 -0.9999 0.9999 -0.0152 -785.7255 2241.4294)" class="st8" width="255.16" height="5.93"/>
				</g>
			</g>
		</g>
	</g>
</g>
<path class="st8" d="M110.2,1634.75c888.95-6.13,1799.44-6.18,2688.39,0C1909.65,1640.93,999.15,1640.88,110.2,1634.75
	L110.2,1634.75z"/>
</svg>
